<svg xmlns="http://www.w3.org/2000/svg" viewBox="0 0 781.02 850.33"><defs><style>.b8a60f24-04d5-4519-9bef-1f99584975d9{fill:#fefefe;}.ae3126ba-6f06-44b3-a60a-238a9e38c73b{fill:#0d0d0d;}.a546bbf8-ece0-412c-a8a9-3391923ea6b2{fill:#fdfdfd;}.a5947a15-7d67-49f0-845b-3b4ad3fd4066{fill:#ec1f26;}.edba1953-5ca1-43e6-8b48-25f0114beedd{fill:#050505;}.accb86bb-ae56-4b03-a838-3bd02f4cabf5{fill:#6f6f6f;}</style></defs><g id="b2c336da-f04a-4f39-bc66-de16a1c8928c" data-name="Layer 2"><g id="b8c16821-f2a9-4f6b-9d3c-19400b9495c6" data-name="Layer 1"><path class="b8a60f24-04d5-4519-9bef-1f99584975d9" d="M780.79,488.75q0-73,0-145.95a123,123,0,0,0-4-33.11c-10.32-37.48-27.9-70.61-59.79-94.2q-132.85-98.28-266.12-196c-35.29-26-85.56-26-120.8-.06q-131.68,96.9-263.4,193.79A149.25,149.25,0,0,0,27.6,255.4C9.72,284.26-.22,315.14,0,349.7.63,445.83.21,542,.23,638.1c0,41.49,30,86,68.58,101.45,72,28.77,144.1,57.17,216,86.15,29.07,11.71,58,23.2,89.91,24.34,30.86,1.1,61.3-.55,90.34-12.06,81.32-32.23,162.28-65.37,243.92-96.77,38.17-14.68,72.92-61.93,72-106.51C780,586.07,780.79,537.4,780.79,488.75Z"/><path class="ae3126ba-6f06-44b3-a60a-238a9e38c73b" d="M780.79,488.75c0,48.65-.75,97.32.22,146,.88,44.58-33.87,91.83-72,106.51-81.64,31.4-162.6,64.54-243.92,96.77-29,11.51-59.48,13.16-90.34,12.06-31.94-1.14-60.84-12.63-89.91-24.34-71.89-29-144-57.38-216-86.15C30.22,724.13.24,679.59.23,638.1.21,542,.63,445.83,0,349.7c-.22-34.56,9.72-65.44,27.6-94.3a149.25,149.25,0,0,1,39.13-42.18q131.85-96.69,263.4-193.79c35.24-25.93,85.51-25.91,120.8.06q133.11,97.94,266.12,196c31.89,23.59,49.47,56.72,59.79,94.2a123,123,0,0,1,4,33.11Q780.71,415.78,780.79,488.75Zm-4.23-.08c0-48.65.87-97.32-.23-145.94-1.16-51.18-22.13-93.88-63.13-124.59C625.68,152.61,536.94,88.72,449.38,23.25c-32.16-24-85.61-24-117.64-.1C244.17,88.6,155.82,153,67.72,217.77a129.62,129.62,0,0,0-28.94,28.75C16.67,277.28,4,310.88,4.2,349.55c.61,95.79.19,191.6.21,287.4,0,41.48,28.79,84,67.18,99.25,71.86,28.61,143.81,57,215.55,85.93,29.55,11.92,59,23.22,91.52,23.9,28.85.6,57.33-1.09,84.42-11.82C544.72,801.88,626,768.65,707.91,737c35.66-13.77,69.58-58.47,68.84-101.91C775.93,586.32,776.56,537.49,776.56,488.67Z"/><path class="a546bbf8-ece0-412c-a8a9-3391923ea6b2" d="M776.56,488.67c0,48.82-.63,97.65.19,146.45.74,43.44-33.18,88.14-68.84,101.91-81.9,31.62-163.19,64.85-244.83,97.18C436,844.94,407.51,846.63,378.66,846c-32.5-.68-62-12-91.52-23.9C215.4,793.21,143.45,764.81,71.59,736.2,33.2,720.92,4.41,678.43,4.41,637c0-95.8.4-191.61-.21-287.4-.24-38.67,12.47-72.27,34.58-103a129.62,129.62,0,0,1,28.94-28.75C155.82,153,244.17,88.6,331.74,23.15c32-23.93,85.48-23.95,117.64.1,87.56,65.47,176.3,129.36,263.82,194.89,41,30.71,62,73.41,63.13,124.59C777.43,391.35,776.56,440,776.56,488.67ZM98.74,397.16c-.45.37-1.09.89-.61,1.41.78.83,1.26-.07,1.73-.59s.58-1.21-.16-1.6C99.56,396.3,99.07,396.88,98.74,397.16ZM698.28,551.38c.53-.52,1.34-1.09.58-1.84-.53-.53-1,.09-1.31.63-.31.36-.62.72-.94,1.07-.63.58-2,1.24-.71,2,.94.6,1.5-.77,2-1.53A4.27,4.27,0,0,0,698.28,551.38Zm-475.73-2.23c.5-.54,1.12-1.2.31-1.81-.57-.43-1,.18-1.25.73-.4.43-1.11.84-.49,1.5S222.17,549.63,222.55,549.15Zm471.64,6.34c.55-.48,1.61-.86.87-1.78-.49-.6-1.08,0-1.48.49l-1.09.91-3,2-10.67,4.48c4.56.7,8.18-1.34,11.75-3.48l3-2.15A1.23,1.23,0,0,0,694.19,555.49Zm-269.28-162c1,.68,1.12-.05,1.21-.79,1.76-.38,4.39,1,4.2-2.88-.13-2.64-.88-3.55-3.37-3.19,0-2.06-.45-3.31-3.09-3.21-5.65.24-11.33.22-17,0-2.73-.1-3.58.87-4.21,3.48-4.46,18.4-9.1,36.76-13.76,55.11-2.74,10.81-5.62,21.58-8.71,33.46-3.47-13.1-6.78-25.31-9.84-37.59-.37-1.49,1.36-3.1-.26-5-1.89-2.2-2.53-5.14-3.25-8q-4.67-18.54-9.65-37c-.54-2-.39-4.67-4-4.5-6.15.28-12.32.05-18.48.11-1,0-2.66-.67-2.72,1.15-.05,1.52-1.05,3.69.87,4.49,4.64,1.91,5.3,5.53,5.29,9.91q-.11,52.47,0,105,0,20.49,0,41c0,3.39-.53,6.53-4.52,7.22-2.88.5-1.38,2.51-1.68,3.87-.55,2.53,1.22,2.59,3,2.56,0,2.9,1.33,4,4.31,3.8a104.27,104.27,0,0,1,12.87,0c4.93.32,5.74-1.87,4.25-5.93-2.41-.47-3.11-3.08-5.09-4.09-1.4-1.9-1.05-4.11-1.05-6.24q0-56.76,0-113.53c0-1.81.26-3.62.39-5.43q9.27,36.18,18.5,72.37c.7,2.78,2,5.37,4.89,4.69s6.68.64,8-4.94c6.2-27,13.18-53.88,19.87-80.8.38-1.56.42-3.23,2-4.4-.25,8.24-.46,16.34-.31,24.48.46,24.31.17,48.63.17,72.94,0,10.66.05,21.32,0,32,0,4,.07,8.29-5.55,9-1.88.23-1.09,1.82-1,2.75.06,1.11-.87,3.44,1.07,3.11,3.22-.53,2,3,3.87,3.43,8.74,1.27,17.53.27,26.29.54,2.87.09,2.28-2.14,2.48-3.9.35-3-1.45-3.24-3.68-3-5.05-6.19-3-13.53-3-20.41-.17-32-.05-64-.08-96,0-13.82-.12-27.65-.18-41.47l.17-1C424.66,395.59,425.65,394.78,424.91,393.44Zm163.9,86.16c.17.63,0,1.95.85,1.59s.16-1.64,0-2.52c.41-1.56-1.27-1.38-1.79-2.16-6.09-7.29-4.66-16.65-6.9-25,1.65-.67.54-1.34,0-2-.22-.66-.44-1.31-.65-2l-.57-2.93c-.56-1.78-.2-4-2.5-5,.3,1.72-.08,3.57,1.38,4.89.17,1,.35,2,.52,3a6.24,6.24,0,0,1-.69.58c-.09,0-.37,0-.4-.08-2-4.59-1.06-10.09-3.29-14.23-2.1-3.92-3-7.72-4.1-12.08,1.61.42,1.28,2.29,2.76,1.74-1,1-.92,1.83.26,2.67a2.24,2.24,0,0,0-.4-2.65c-2.06-4.39-5.68-7.88-6.54-13.07-.41-2.48,1.38-5.06-.28-7.09-3.7-4.51-4.38-9.87-5.38-15.31-.4-2.18-1.57-4.73-5.21-4.51-6,.36-12,0-18,.15-1.39,0-3.76-1.06-3.75,1.74,0,1.64-.94,3.36,2.1,4.58a8,8,0,0,1,5,7.45q-.21,73.92-.09,147.82c0,3.69-1,6.71-5.22,7.13-1.64.16-2,.92-1.8,2.21s-.88,3.93,1,3.69c3.3-.39,2,3,3.76,3.54a80,80,0,0,0,20.27.05l0-1.53H539.1c-.37-1.77.77-1.81,2-1.8,3.49,0,7,.06,10.45,0,1.83,0,4.32.86,4.81-2,.45-2.62-1.36-4-3.57-5q0-55.14.1-110.29c0-1.86-.93-4,.89-5.62,2,7,4,14,6,21q14.1,48.9,28.24,97.81c.55,1.9.49,4.53,3.68,4.21.28,2.86,1.79,3.89,4.69,3.73a75.92,75.92,0,0,1,12,0c4.7.49,5.75-1.28,5.74-5.8-.16-51.1-.1-102.2-.1-153.29V395.6c-2.08,2.46-1.77,5.25-1.77,8q0,74.16,0,148.3c0,8.54,0,8.71-8.6,8.45-3.44-.1-7.24,1.55-10.34-1.38,4-.88,8-.58,11.92-.29s4.79-1.18,4.78-4.93q-.19-76.91-.09-153.82c0-8.45.15-8.66,7.17-11.19,5.23,1.64-.81,2.67-.06,4.44,1.53-.09,3.64,1.5,4-1.91.35-3.06-.17-5.27-4-4.87-.09-1.5,0-2.89-2.33-2.82-5.65.16-11.32,0-17,0-1.21,0-2.58,0-2.41,1.67.14,1.47-1,3.27,1.17,4.36,4.15,2.06,6.1,5.16,6.08,10.19-.17,39.13-.08,78.27-.06,117.4-3-.29-3.1-2.46-3.1-4.71-.31-.93-.61-1.86-.93-2.84-1.29.84-.45,1.82-.39,2.71-.26.52-.24,1.33-1.19,1.09-2.21-7.78-4.49-15.55-6-23.53-.67-3.58-4.1-6.38-3.1-10.49Zm-376.1,77.53c-1.83,1.15-4.11,1.62-6.05,4.19,3.32-.33,5.19-1.82,7.1-3.2,1.32-1.06,3.21-1.65,3.73-5ZM321,561.48c2.26-1.31,1.25-3.51.88-5.06-.27-1.17-1.85.61-2.92.2-.16-2.37.35-5-3.83-3.27-3.1,1.28-3.11-1.65-3.29-3.74a1.65,1.65,0,0,0-.22-2c-.14-2.31-.41-4.63-.42-6.94,0-13.28,0-26.55-.08-39.83,0-2.3.36-4.79-1.6-6.88,1.36,17.93,0,35.66.84,53.34a3.07,3.07,0,0,0,.55,3.2c-.63.86-1.34,1-1.82,0a14.37,14.37,0,0,1-1.15-6.35c-.09-14.49-.13-29-.23-43.47-.05-7.66-.16-15.2-7.86-20.05-1.63-1-4.24-1.06-5-3.59,11.84-5.72,17.7-15.74,18.63-28.2a248,248,0,0,0-.08-33.94c-.3-4.81.46-10.32-2.92-14.53-8.17-10.13-18.24-17-31.82-17.09-11.16-.09-22.32-.06-33.48,0-1.29,0-3.38-.8-3.3,1.69,0,1.42-.76,2.91,1.43,4.2a9.56,9.56,0,0,1,4.83,8.89c-.19,31.49-.11,63-.11,94.46v52c0,3.64-.2,7.11-4.83,8-2.63.52-1.12,2.69-1.34,4.09-.4,2.52,1.75,1.74,3,2.08.05,1.84-.13,3.72,2.67,3.7q12.42-.09,24.82,0c2.66,0,2.78-1.53,2.82-3.55.06-2.34-.25-4-3.19-3.3l-3.09-4.94.21-63.92c0-1.24-.08-2.35-1.95-2.57v5.48c0,18.65,0,37.3-.07,55.95,0,1.6,1.16,3.67-1,4.9A11.07,11.07,0,0,1,265,545.1c0-20.15,0-40.31-.05-60.47,0-2.5.54-3.85,3.25-3.33,5.14,1,10.22-1.07,15.53,3.61,4,3.54,6.16,6.56,6.24,11.21.24,13.16.16,26.32.12,39.48a47.93,47.93,0,0,0,.95,9.42c1.26,6.42,4.86,12,10.26,14.69A16.26,16.26,0,0,0,319,557.55c3.72-.17,1,2.9,2,4.07-.64-1.12-1.25-.13-1.85.07-.08,0,0,.76,0,.76C320,562.55,320.74,562.4,321,561.48Zm-9.37-92.21c1.91-3,3.87-6,3.14-10.11l-4.11,9c-.59,1.07-2.32,1.69-1.49,3.57A4.47,4.47,0,0,0,311.64,469.27ZM96.71,400.13A14.76,14.76,0,0,0,94,411.44L97.84,401c.21-.52.94-1.06.19-1.6S97,399.59,96.71,400.13ZM374.09,506.42c5.11,2,9,1.48,10.76-1.87-3.41,1.27-6.63.94-9.84.93l-1-.82Zm333.7-67.86c.2-4,.76-8.09-1.77-12.6a38.23,38.23,0,0,0,.76,12.5l.27,24q-.15,28.53-.28,57.06-1,7.44-2.06,14.86l1.43.19c.75-5,2-10,1.62-15.18q0-28.45,0-56.93Q707.78,450.53,707.79,438.56ZM177.22,398.61l0,57.79q0,37.46.05,74.92c0,.55-.12,1.41,1,1.4,1-1.42.77-3.07.76-4.67,0-18.33.07-36.65-.14-55-.07-5.6.85-11.27-.68-16.82l-.06-57.73c1.39-1.86.94-5.36,4-5.62s2.7-2.08,2.73-4.06c0-2.89-2-2.47-3.75-2.43-.26-1.62-.31-3.08-2.8-3-8,.18-16,.05-24,.08-1.24,0-3-.4-2.79,1.74.13,1.44-.75,3,1.52,4.16a8.63,8.63,0,0,1,4.92,8.13c-.15,13.32-.07,26.65-.05,40,0,30,0,60,.17,89.93.09,18,13,31.89,29.35,33.29,19.69,1.68,37.34-14.8,37-35.36-.72-41.62-.22-83.26-.19-124.9a62.06,62.06,0,0,1,.54-7.45c.21-1.73,1-3.43,2.94-3.56,3.31-.23,2.39-2.57,2.39-4.34,0-2.59-2.12-1.56-3.35-1.58-7.32-.09-14.65-.11-22,0-1.3,0-3.73-1.33-3.74,1.62,0,1.67-.92,3.5,2.24,4.47,2,.61,3.82,3.59,3.81,6.83-.12,43.8-.06,87.6-.23,131.4,0,6.81-1,13.65-4.34,19.79-3.53,6.41-10.14,9.6-15.85,6.59a18.55,18.55,0,0,1-9.31-10.82,56.83,56.83,0,0,1-2.35-16.25q-.21-64.69-.43-129.39c0-4.8,1.13-8.32,6.32-9.36,3.55.42,2.48,1.82.43,2.83A6.87,6.87,0,0,0,177.22,398.61ZM228,532.47V397h-1V532.54a111.77,111.77,0,0,1-3.7,14.11A19.3,19.3,0,0,0,228,532.47ZM331.08,323.59c.8-2.07,3.46-.51,4.74-2.77-5.36-2.21-2.51-6.39-1.53-10.94-5.35,3.75-4.09,8.85-5.21,13-.2.73,1.37.34,2.07.65-1.24,2.5-4,4.05-3.78,7.5.64,11.08,13.17,24.26,25.57,25.61-7.33-5.38-9.78-12.15-9.58-20.34C343.62,325.6,341.35,323.5,331.08,323.59ZM132.57,713l1.15,1c-.56,2.08-1,4.19-1.71,6.23s.35,2.61,1.85,3.4c1.69.89,2.32-.05,3.22-1.13,1.13-1.35,1.64-3.31,3.62-3.9,1.29,1.68-.12,2.9-.74,4.07-1.1,2-1.51,3.43,1.19,4.66s3.1-.39,3.93-2.08c3.14-6.41,6.35-12.78,9.46-19.2.77-1.58,2.83-3.51-.58-4.61-2.33-.75-4.51-4-7.05.12-1.84,3-3.68,6.15-7,8.77.18-4.49,2-7.9,3.06-11.49,1.28-4.26-2.78-3.73-4.59-5.1-2.09-1.57-2.73.35-3.47,1.86-3.28,6.71-6.52,13.45-9.95,20.09-1.06,2-1.07,3,1.24,4.19s2.91.15,3.7-1.53S131.67,714.74,132.57,713ZM87.16,342.45c66.93,2.1,133.89,3,200.85,3.69,3.51,0,4.51-.84,4.49-4.36,0-3.36-.71-4.54-4.35-4.47-23.15.4-46.3.5-69.45.8-43.81.55-87.61,1.41-131.39,2.84-5.78-.8-11.39.51-17,1.5Zm605.51-1.56c-2.44.21-5,1-7.31.52-8-1.61-16.18-1.13-24.25-1.35Q572,337.72,482.8,337.25c-3.93,0-3.64,1.93-3.72,4.58-.09,2.93.25,4.52,3.94,4.4,11.65-.36,23.31-.32,35-.43,58.28-.52,116.54-1.4,174.79-3.42,4.34-.1,8.72.6,13-.5A35.45,35.45,0,0,0,692.67,340.89ZM461,555.43c.46-2.92-3.61-2.94-3.57-5.59-5.25,1.26-2.95-2.48-2.67-4.36,1.31-8.89,2.85-17.74,4.25-26.61.34-2.15.76-3.65,3.6-3.59,8.82.18,17.65.06,26.48.07,1.07,0,2.07.1,1.79,2.29H462.3a245.37,245.37,0,0,0,25.83.89c1.83,0,3.49-.3,3.85,2.5,1.1,8.42,2.6,16.78,3.76,25.18.5,3.6-.6,6.4-4.94,6.31-1.74,0-2,.93-1.75,2.17s-1,3.87,1.1,3.61c3.25-.39,2,3,3.8,3.49,10.38,1.25,20.82.13,31.21.6,4.41.2,3.89-1.78,2-6,.64,5-2,4-3.74,4-9.79.06-19.58,0-29.37,0-.2-3.21,2.28-1.74,3.48-1.76,8.15-.14,16.31,0,24.46-.11,1.25,0,3.49.8,3-1.85-.3-1.51,1.35-3.78-2.3-4.27-4.08-.55-7.07-3.06-7.8-7.89-3.05-20-6.4-40-9.58-60.06q-7.35-46.29-14.58-92.59c-.16-1-1.14-2.09.14-3.16.81-.68.44-.67.17-1.23-2.36-4.9-6.81-2.86-10.54-3.37-3.12-.43-4,1.13-4.43,3.79-2.61,14.72-5.35,29.42-8,44.13q-10.18,56.14-20.34,112.3c-.84,4.64-2.77,8.24-8.25,8.26-1.16,0-2.59-.19-2.32,1.61.22,1.45-1.07,4.29,1.09,4.1,3.29-.29,2,3,3.76,3.53,6.24,1.28,12.56.22,18.84.55,2.06.11,3.95.19,4.08-2.89S464.11,555,461,555.43ZM142.09,428.71c3.49,1.43,5.15.65,5.09-3.51-.16-11.75,0-23.51-.09-35.26,0-1.15.78-2.72-1-3.41-1.32-.3-2.48,0-3.24-2.1-1.1-3-4.27-2.31-5.84-.54-4.84,5.44-4.68,5.58-11.07,2.4-22.45-11.17-46.94,1.57-50.87,26.15C72.62,427.69,73,443,73,458.31c.09,22-1,44,1,65.93,1.2,13.36,6.55,24.21,17.5,32.23,3.08,2.25,6.88,4.95,9.91,4.46,5.93-1,12,.42,17.75-1.53,4.08-1.39,8.06-3,12.17-4.36,1.95-.61,4.73-1.65,5.56,1.16,1,3.2,3.51,2.86,5.32,2.71,2.81-.24,1.89-3,1.89-4.82q.08-34,0-68c0-2.15-.14-4.31.8-6.38,1.23-2.7,4.16-3.14,6.27-3.65,1.27-.3.51,2.63.13,4.14,0,.12.43.36.94.77,1-2.21,1.69-4.61,0-6.27-3.07-3-6.95-3.69-11.36-3.51-8.65.35-17.32,0-26,0-1.45,0-3.76-.95-3.61,1.88.1,1.77-1.5,4.66,2.4,4.69,1.81,0,1,1.73,1.46,2.67,3.52,2.21,7.35.69,11,.88,1.79.73,1.65,2.31,1.63,3.8-.22,17.64.64,35.29-.66,52.91-.89,12-6.94,17.23-18.93,16.72-4.38-.19-8.68-1.26-10.35-5.58-1.27-3.28-5.13-3.95-5.88-7.57a67.65,67.65,0,0,1-1.91-13.79q0-56.43,0-112.86a51.4,51.4,0,0,1,.92-8.91c2.27-12.37,9.92-18.3,22.47-17.81,3.6.13,5.77,2.9,8.53,4,8.54,3.42,11,10.39,13.11,18.06C137,416.61,135.32,424.25,142.09,428.71ZM384.2,343.29c32.78-16.46,54.75-43.69,64-78.93,5.24-20,7.56-40.21,2.75-60.7-3.49-14.88-12.7-23.68-27.79-26.32a51.72,51.72,0,0,0-22.25.82c-10.08,2.64-15.78,9.41-17.81,19.42a49.58,49.58,0,0,0,.45,20.33c2.82,13.27,9,25.32,13.9,37.84,8.76,22.55,8.9,44.75-1.56,66.8C392.47,329.72,388.26,336.43,384.2,343.29ZM633.26,471.6c0,9.48-.18,17.64,0,25.8.32,12-.14,24,2.61,35.79,3.51,15,15.86,25.43,29.88,26.51,16.78,1.29,34.79-9.34,36.89-31.36,3.55-37.21,2.4-74.51-.09-111.75-.3-4.58.18-9.74-1.44-13.66C695.86,390,676.31,381,662.49,384c-16.39,3.61-25.4,14.74-27.64,34C632.73,436.28,633.82,454.62,633.26,471.6Zm65,128.48q-308.85-9.3-617.56,0Q389.53,609.24,698.28,600.08ZM383,250.7c-.52-3-2.49-4.46-3.82-6.26-8.33-11.23-13.86-23.53-13.94-37.73-.07-10.61,3.11-20.65,6.21-30.68,2.5-8.11,5-16.24,4.42-24.91-.83-13.12-6.87-20.33-18.82-21-15-.84-30.7,4.57-32.56,25.13A87.21,87.21,0,0,0,326,179.09C332.17,212.87,350.76,236.87,383,250.7ZM390,116.9c21.3,0,42.6-.12,63.9.09,4.69.05,6.22-1.55,5.93-6.07-.31-4.81.07-9.66-.11-14.48-.22-5.87-3.27-9-9-9q-60.17-.09-120.32,0c-5.79,0-8.81,3.13-9,9-.16,4.32,0,8.66,0,13,0,7.52,0,7.52,7.27,7.52Zm-8.23,239.69c.12-.65.21-.82.16-.93a16.27,16.27,0,0,0-.89-1.77q-11.16-18.63-1.48-38.05c1.55-3.12,2.92-6.34,4.29-9.54A26.64,26.64,0,0,0,386,292.65a10.16,10.16,0,0,0-6.91-9c-11.35-4.27-22.14,1.49-24,13.42C351.38,321,359.18,343.11,381.75,356.59Zm17.12.42c4.47.87,8.74.23,13-.51,17.21-3,30.11-12.63,39.57-26.91,4.6-6.94,2.28-13-5.28-16.54-4.8-2.27-9-1.39-12.89,2a24.48,24.48,0,0,0-7.35,12.21C421.87,341.66,413.41,351.93,398.87,357ZM446.2,181.08c.9-.67,1.26-.81,1.4-1.06,10.39-18.66,7.9-37.05-1.1-55.34-1-2.09-2.54-2.25-4.47-2.23-5.66.06-11.32,0-17,0-6,0-6.49.79-4.25,6.61s6.8,10.23,11.26,14.44C442.79,153.66,448.05,165.81,446.2,181.08ZM328,302.47c1,0,1.59.16,2,0a25.44,25.44,0,0,0,3-1.69c10.5-6.68,16-16.48,18.07-28.56.81-4.82,1.15-9.59-.25-14.33-1.71-5.8-7.08-8.51-14.48-7.45-5.21.75-7.52,4.08-7.45,10.51,0,4.79,2,9.05,3.58,13.41C336.06,284.33,335,293.58,328,302.47ZM428.65,173.59c2.91.8,2.69-.66,1.92-2.58a29.35,29.35,0,0,0-9.66-13.07,11.21,11.21,0,0,1-4-5.45,56.21,56.21,0,0,0-11.6-19.59,36.1,36.1,0,0,0-13.48-9.18c-2.86-1.09-4.65.58-5.78,2.57-1.52,2.65,1.56,2.65,2.75,3.37a34.77,34.77,0,0,1,16.78,23.11c.63,2.88.48,5.37-1.89,7.72-3,3-4.61,6.87-5.69,10.93-.46,1.73-.22,3,2.15,2.26A50.24,50.24,0,0,1,428.65,173.59ZM309.71,765.41c.51,3.5,1,6.57,1.39,9.65.3,2.35,2.07,2.18,3.7,2.4,1.93.27,2.08-.9,2.28-2.36,1.08-7.73,2.1-15.47,3.45-23.15.43-2.46-.66-2.79-2.45-3.19-2-.45-3.06-.12-3.22,2.26a70.13,70.13,0,0,1-1.25,7.4,19.74,19.74,0,0,1-2.17-8.15c-.18-2.49-1.66-2.77-3.68-2.94-2.46-.2-2.19,1.69-2.39,3-1.17,7.37-2.13,14.78-3.33,22.16-.38,2.35.37,3.15,2.64,3.63,3,.62,2.89-1.32,3.19-3.09C308.27,770.58,308,768,309.71,765.41Zm85.56-.4-.9.14c-.82-2.78-1.79-5.53-2.4-8.35-.5-2.32-1.8-2.72-3.9-2.73-2.86,0-2.13,1.93-2.14,3.42-.08,7.31-.06,14.61-.14,21.91,0,2-.1,3.46,2.73,3.44s2.81-1.3,2.84-3.37-.71-4.21.73-6.36c1.93,2.21,2.13,4.93,2.73,7.36.65,2.68,2.41,2.22,4.18,2.27,2.49.08,1.9-1.76,1.91-3.13,0-7.47,0-14.94.07-22.41,0-1.84,0-3.15-2.54-3.07-2.24.08-3.39.55-3.21,3.07S395.27,762.41,395.27,765Zm-134-21c-.28-7.38-5.73-6.89-9.69-8.3-2.1-.76-3.2-.27-3.74,2.25a179.44,179.44,0,0,1-5.09,20.18c-1.49,4.41.22,5.49,3.85,6.15s8.13,2.25,9.87-2.57C258.64,755.69,259.85,749.31,261.25,744Zm309.66,5.73c-2-6.45-4.2-13.22-6.26-20-.63-2.1-1.47-2.93-3.85-2.19-2.66.81-2.6,2.17-1.86,4.34,1.82,5.33,3.49,10.71,5.15,16.09.35,1.11,1.79,2.75-.21,3.3-1.77.48-1.7-1.58-2.09-2.73-1.87-5.66-3.81-11.3-5.51-17-.62-2.08-1.5-2.16-3.19-1.35-1.37.65-3.46.28-2.5,3.07,2.27,6.57,4.15,13.28,6.46,19.84,1.22,3.45,4.05,4.63,7.64,3.8S570.67,754.09,570.91,749.73Zm-90.78,8.38c0-8.4-2.73-10.35-11.14-9.28-3.9.49-4.43,1.94-3.85,5.34,1.19,6.85,2.06,13.76,3,20.66.28,2.14.89,3.11,3.44,2.85s2.89-1.44,2.48-3.54c-.38-1.95-.64-3.93-.88-5.9-.1-.91-.61-2.26.66-2.53,1.55-.34,1.78,1.11,2,2.25a51.46,51.46,0,0,1,.91,6.39c.09,2.64,1.68,2.2,3.38,2.11,2.14-.12,2.49-.92,2.46-3.13C482.45,768.1,479.12,763.45,480.13,758.11Zm51-21.54c-1.66.38-3.41.89-5.21,1.17-3.23.5-4.24,1.76-3.12,5.22,1.84,5.66,3,11.54,4.5,17.31C529,767.1,529,767,536,764.88c3.6-1.09,6.2-3,5.36-7-1.21-5.83-2.84-11.58-4.47-17.31C536.15,737.82,534,736.7,531.08,736.57ZM281,771.74c3.27.17,5.06-2.39,5.82-6,1-4.7,1.86-9.42,2.75-14.14s-1-7.85-5.52-8.9c-4.34-1-7.58,1.08-8.66,5.89s-1.87,9.43-2.72,14.16C271.68,768.41,274.53,771.82,281,771.74ZM179.58,714.61c.85-3.29-2.18-3-3.77-3.84s-3.29-1.76-4.75,1c-3.65,6.86-7.73,13.48-11.62,20.22-.69,1.19-2,2.66.46,3.38,1.5.44,3.14,2.33,4.56-.49.57-1.13.64-3.69,3.24-2.61s.59,2.84.34,4.12c-.57,2.8,1.58,2.82,3.1,3.57,2.69,1.33,2.27-1.29,2.53-2.27C175.75,730,177.64,722.31,179.58,714.61ZM502,743.25c-5.08.08-8.41,3.1-7.75,7.3.9,5.7,2.16,11.36,3.5,17,1,4.18,4.16,5.43,8,4.63s6.66-3.23,5.92-7.71c-.9-5.37-2.07-10.7-3.25-16C507.7,744.89,505.44,743,502,743.25ZM369.93,777.14c-.61-6.95-1.42-13.89-1.73-20.85-.14-3.07-1.77-3-3.84-2.95s-4.67-1.07-5.28,2.61c-1.26,7.52-2.84,15-4.17,22.5-.15.9-1.57,2.36.28,2.88a7.19,7.19,0,0,0,4.31-.07c.69-.27.82-2,1.17-3.08.29-.9.24-2,1.68-2,1.69,0,1.72,1.06,1.89,2.28.21,1.52-.3,3.39,2.15,3.85C371.63,783.27,369.79,779.56,369.93,777.14Zm-95.36-125c0-4.22-1-8.55-5.63-10.92a12,12,0,0,0-13.19,1.11c-6.45,4.76-9,11.41-7.89,19.28,1,7.57,7.37,11.34,14.66,9C269.22,668.39,274.21,660.94,274.57,652.11Zm139.15,17.71c-6-1.85-2.46-6.08-2.67-9.18-.08-1.2-.26-2.85,1.61-3.16s2.52,1.21,3.16,2.56c1.41,3,2.59,6.12,4.24,9,1.49,2.59,3.72,3.39,6.55,1.13a16.77,16.77,0,0,1-4.46-5c-3.53-6.46-3.54-6.57,1.69-11.67,3.9-3.8,3.68-9.8-.73-11.83-5.22-2.39-10.69-1.17-16.54-.46,4.45,1,3.45,3.81,3.06,6.38-.6,3.94-1,7.92-1.83,11.82s0,8.55-5.08,10.78C406.57,670.63,410,671.07,413.72,669.82Zm223.51,31.73c1-.1,1.64.18,1.88.87,1,2.91,2.77,2.07,4.65,1,2.77-1.6.61-3.22-.17-4.49-2.14-3.46-5.34-3.66-8.68-2s-4.85,4.31-3.43,8.19a10.57,10.57,0,0,0,7.27,6.85c2.34.73,5,1,6.76,2.89.72.74,1.71,1.93.56,3s-2.08.14-2.61-.94c-1.58-3.23-3.41-.73-4.85-.06-2.15,1-.53,2.49.11,3.66a5.92,5.92,0,0,0,7.11,3.15c3.09-.69,5.74-2.08,6.2-5.56a8.39,8.39,0,0,0-4.31-8.83c-2.27-1.3-4.9-1.94-7.37-2.88C638.07,705.57,636.29,704.41,637.23,701.55ZM451.09,762.33c-.41-9.73-2-10.9-11.27-10.21-3.23.24-4.19,1.11-3.8,4.34.86,7.27,1.42,14.57,2,21.86.16,2,.64,3,3,2.72,2.13-.29,3.48-.75,3-3.31-.29-1.46-.15-3-.41-4.47-.3-1.71-.2-2.73,1.95-3C450.34,769.51,451.77,766.34,451.09,762.33Zm134.46-37.85c1.28-.13,2,0,2.17.73.94,3.79,3.27,1.77,5,1.07,2.62-1.07.75-2.87.14-4.1-1.73-3.51-4.63-4.52-8.31-3.18s-6,4-4.68,8a170.26,170.26,0,0,0,6.26,16.71c1.59,3.65,5.5,4.45,9.38,2.49s4.51-5,3.27-8.8c-.42-1.28-1-2.77-2.74-1.78-1.21.7-3.67.16-3.22,2.86.15,1,1.26,2.2-1.22,3.24C589.64,736,586.73,730.61,585.55,724.48Zm-384.88,1.26c1.31.58,1.54,1.3,1.28,1.87-1.46,3.2.92,3.43,3,4.07,3.25,1,2.64-1.94,3-3.2,1-3.87-1-6.45-4.59-7.65s-6.87-1-8.43,2.9c-2.22,5.52-4.19,11.16-5.92,16.86-1.33,4.39,1.09,6.89,5.17,8.09s6.77-.28,8.27-4.17c.52-1.35,1.63-2.82-.81-3.44-1.58-.41-3.39-2.2-4.5.66-.36.9-.66,1.93-2.53,1.12A96.43,96.43,0,0,1,200.67,725.74Zm109.25-60.36c1.37-1.85,2.95-1.65,4.42-1.86,4.07-.58,6.37-3,6.17-7.08-.1-2.08-.35-3.38,2.24-3.51a1.47,1.47,0,0,0,1.22-1.86c-.24-1.45-1.28-1.14-2.29-1a13.23,13.23,0,0,1-2.95,0c-7.08-.88-10.71,2.77-9.71,9.77.15,1,1.43,2.32,0,3.14-5.47,3.2-1.59,4.87,1.5,6.84-1.16.64-2,1.07-2.76,1.54-1.62,1-3.14,2-3,4.21.2,2.49,2.28,3.25,4.14,3.72a16.06,16.06,0,0,0,10.28-.55c2.09-.87,4-2,4.23-4.43.21-2.64-2-3.58-3.91-4.6C316.54,668.11,312.87,667.88,309.92,665.38Zm-83.14,80.84c1.31.45,2.7.66,3.32-1.76.55-2.11,0-3-2.1-3.39-2.31-.42-1.34-2-1.06-3.43.4-2,1.24-3,3.34-2.15s3.26.25,3.8-2.07c.58-2.49-1-2.73-2.66-3.13a23.19,23.19,0,0,1-4.27-1.31c-2.58-1.16-3.75-.58-4.48,2.32-1.45,5.77-3.35,11.42-5.07,17.12-2.16,7.14-2.16,7.15,5.26,9.21,1.56.44,3.19,2,4.31-1,1.07-2.88-.46-3.49-2.48-4-2.76-.64-1.72-2.45-1.09-3.81C224.13,747.71,223.43,745,226.78,746.22ZM475,651.76c3.67.46,4,2.23,3.35,5.32-1.28,6.18-2.17,12.44-3.07,18.69-.18,1.21-1.34,3.25,1.06,3.56s2.3-1.74,2.48-3.4c.37-3.47.64-7,1.28-10.38.69-3.73,1.12-7.67,3.83-10.64,1.6-1.76,3.86-3.56,5.75-.71,2.28,3.45.51,7.07-.78,10.48-.91,2.41-2.39,3.93-5.34,2.86a1.56,1.56,0,0,0-2.25,1.74,2.12,2.12,0,0,0,2.4,2,8.16,8.16,0,0,0,5.94-3.26,18.2,18.2,0,0,0,3.8-12.11c0-2.1-.08-4.42-2.33-5.71-2.48-1.4-4.43-.12-6.41,1.21-.66.45-1.6,2.18-2.2.74C480.31,646.85,477.65,651.69,475,651.76ZM92.85,533.26l1,0V415.6h-1Zm514,182.87c2.71-1.88,3.09.57,3.78,2.08,2.18,4.84,4.22,9.74,6.37,14.58.81,1.81,1,4.18,4.37,2.71,3.12-1.37,2.12-2.92,1.21-4.93-2.25-5-4.43-10-6.64-15-.66-1.47-1.8-3,.76-3.89s1-2.58.47-4c-.75-2.11-2-1-3.16-.5-2.88,1.26-5.76,2.56-8.67,3.74-1.47.59-2.29,1.37-1.38,2.94C604.59,715,604.54,717.1,606.83,716.13Zm-269-64.65c3.78.82,3.84,3.18,3.46,6-.42,3.12-.42,6.31-1.67,9.29-.85,2-.51,4,1.81,4.22s1.58-2.06,1.66-3.36a27.47,27.47,0,0,1,1.87-9.24c1.16-2.7,2.24-6.6,5.81-5.66,4.12,1.08,1.85,4.93,1.54,7.68s-.9,5.58-1.2,8.38c-.13,1.24.49,2.48,1.93,2.29a6.87,6.87,0,0,0,4.35-2.21c.48-.54.5-1.44-.4-1.44-3.93,0-1.83-2.77-1.76-4.24.13-2.8,1-5.58,1.1-8.38.09-4.58-3.32-6.53-7.42-4.39a27.85,27.85,0,0,0-3.58,2.63C344.4,646.42,340.53,651.81,337.79,651.48Zm33.46,15.11c.64,2,.69,3.24,1.35,3.93,1.58,1.65,3,.2,4.35-.69.53-.36,1.46-1.44.17-1.81-3.66-1.07-1.9-3.72-1.68-5.69.37-3.29,1.24-6.52,1.77-9.8.25-1.56.09-3-2.16-3-8.14-.16-15.87,10.17-13.41,18,1.23,3.92,3.93,4.85,7.18,2.33C369.7,669.17,370.21,668,371.25,666.59ZM333.4,777.12c-.82,2.54,1.09,2.44,2.71,2.83,2.05.49,3,.06,3.17-2.26.71-7.92,1.6-15.82,2.52-23.71.25-2.09-.69-2.51-2.48-2.62-1.95-.11-3.35-.34-3.56,2.49C335.18,761.6,334.21,769.33,333.4,777.12ZM380.06,281c-.61-1.92-.7-3.21-1.36-4.07-3.74-4.88-1.2-8.72,2-12.35a22.68,22.68,0,0,1,4-3c.65-.47,1.55-.84,1-1.86a1.72,1.72,0,0,0-2-1.07,16.59,16.59,0,0,0-4.42,2.19c-6.46,5.14-8.75,13.35-14.44,19.38C369.89,279.08,374.58,279.82,380.06,281Zm61.35,384.69c-1.28-.79-1.73.41-2.38,1-1.4,1.35-2.95,2.26-4.91,1.45s-2.5-2.61-2.7-4.46c-.28-2.49,1.55-3.4,3.46-4.2a39.17,39.17,0,0,0,3.6-1.67c2.34-1.24,4.56-3,3.16-5.83-1.56-3.16-4.63-3-7.34-1.51-5.09,2.8-6.57,7.63-6.54,13,0,3.62,1.43,6.55,5.18,7.61C436.17,672.06,439.65,669.69,441.41,665.66Zm68.82-.46a14.66,14.66,0,0,0-1.49,1.19c-1.45,1.53-3.07,2.7-5.24,1.71-1.83-.84-2.44-2.53-2.59-4.48-.21-2.61,1.68-3.32,3.51-4.15,1.35-.62,2.72-1.21,4-1.94,2.17-1.25,3.9-3,2.58-5.63s-3.87-2.72-6.45-1.78c-5,1.83-8.73,9.76-7.19,15.43.85,3.11,2.53,5.69,6,5.67S509.79,669.44,510.23,665.2ZM383,638.74c3.45,1.26,3.2,3.67,2.8,6.22-.85,5.41-1.72,10.83-2.46,16.27-.36,2.62-.53,5.28-.64,7.93a1.86,1.86,0,0,0,1.78,2.05,4.85,4.85,0,0,0,3.55-1.54c.52-.51.78-1.52.17-1.65-4.53-1-2-4.34-1.78-6.34.78-6.92,2.05-13.8,3.26-20.67.55-3.08-.45-4.12-3.44-3.23Zm76.28,17c1.05-5.11-1.09-7.09-5.65-5.82-5.09,1.41-8.38,7.26-7.83,14,.29,3.54,1.46,6.85,5.43,7.23,3.7.36,6.28-1.84,7.92-5.82-3.18.26-4.75,5-7.69,2.34s-2.35-6.62-1.45-10.25a3.71,3.71,0,0,1,.1-.48c.87-2.15,1.58-4.53,4.16-5.18C457.08,651.05,457.24,654.19,459.25,655.73Zm59.65,15.52c5.19.06,7.81-3.94,5.64-8.51a49,49,0,0,0-3.72-5.86c-.84-1.28-1.77-2.79-.69-4.09,1.35-1.61,2.65-.16,3.8.73.93.72,2,1.71,2.93.35s.07-2.53-1.17-3.3c-2.4-1.5-4.78-1.1-7,.38s-2.49,4-1.61,6.23,2.52,4.26,3.65,6.46c.79,1.56,2.16,3.35.37,5s-2.86-.36-3.94-1.44-2-1.52-2.95-.34-.19,2.19.79,3A7.09,7.09,0,0,0,518.9,671.25Zm-157.07-543c-.49-4.63-2.52-6.36-6.69-5.94a97.44,97.44,0,0,1-10,.07c-6.17,0-7.76,1.76-7.48,8.36C345.37,127.2,353.39,126.91,361.83,128.2Zm-84,523.28c3.66.72,3.66,3.09,3.28,5.66s-.65,4.91-1.1,7.35c-.41,2.26-2.81,5.7.59,6.28,3.65.62,2-3.55,2.38-5.61a29.23,29.23,0,0,1,3.41-10.27c1.49-2.52,3.81-1.15,5.81-1.37a1.88,1.88,0,0,0,1.74-2,2,2,0,0,0-2-1.81,6.83,6.83,0,0,0-4.94,2c-.46.38-1.25,1.76-1.74.45C283.25,646.8,280.41,652,277.79,651.48ZM444.84,310c2.42,1.44,5.07,2.59,7.17,4.38,2.49,2.12,3.25,1,3.16-1.36a34.47,34.47,0,0,1,1.56-10.2,9.87,9.87,0,0,0-.64-6.83c-.5-1-.95-2.35-2.4-2-1.78.42-.88,1.85-.7,2.87.91,5.34-.16,9.57-6,11.32A3,3,0,0,0,444.84,310Zm18.1,341.66c3.24.77,3.52,2.71,3.05,5.31-.67,3.74-1.17,7.52-1.58,11.31-.12,1.12.21,2.52,1.57,2.77a4.19,4.19,0,0,0,4.28-2c1.31-2.14-1.1-1.12-1.76-1.63-1.18-.91-.59-2.16-.45-3.19.36-2.79,1-5.54,1.43-8.31.32-1.92,1.61-4.37,0-5.66C467.61,648.8,465.34,650.74,462.94,651.7Zm-168.16,0c3.32.78,3.55,2.78,3.08,5.38-.69,3.75-1.23,7.54-1.72,11.33a2.27,2.27,0,0,0,1.68,2.71,4.22,4.22,0,0,0,3.95-1.71c1.43-1.76-.23-1.52-1.31-1.9s-.75-1.68-.62-2.61c.42-3,1-5.91,1.33-8.88.25-1.89,2-4.17.18-5.62C299.36,648.78,297.19,650.76,294.78,651.7Zm30.71.18c4.48.16,3.63,2.91,3.33,5.23-.5,3.79-1.18,7.55-1.64,11.34a2.22,2.22,0,0,0,1.71,2.68,4.3,4.3,0,0,0,3.93-1.75c1.41-1.82-.39-1.48-1.37-1.88-1.21-.49-.71-1.72-.59-2.64.41-3,.93-5.91,1.34-8.88.27-1.89,1.92-4.19.13-5.61C330.34,648.79,328.17,650.74,325.49,651.88ZM140.92,559.21c2,3.44,4.13,2.62,5.88,2.52,1.39-.08,1.19-1.34,1.19-2.3q-.08-37.63-.19-75.27c0-.09-.18-.18-.33-.32-1,1.9-.54,3.93-.54,5.88q-.06,32.94,0,65.88C146.93,559.07,147.43,562.78,140.92,559.21ZM344.26,248.55c-2.26-8.78-8.11-15.75-14-15.62,5.79,4.38,8.9,9.13,3.23,15.62Zm-26.9,171.16h-1v32.5l1,0ZM234.29,659.57s1.32,0,2.65,0,2.39-.19,2.22-1.84c-.14-1.39-1.24-1.28-2.23-1.23-2,.1-4,.16-6,.33-1.24.1-3-.29-3,1.68,0,2.16,1.79,1.33,3,1.32C231.65,659.82,232.31,659.73,234.29,659.57Zm312.83.32c1.78-1.26,5.73,1.34,5.53-2-.16-2.88-3.78-1-5.8-1-1.73,0-5.05-1.1-4.94,1.5C542.06,661.69,545.36,658.93,547.12,659.89ZM301.53,644.61a2.38,2.38,0,1,0-.67-4.7,2.23,2.23,0,0,0-2,2.42C298.94,644,300,644.55,301.53,644.61Zm167.81-4.79c-1.36.44-2.49,1.16-2.31,2.75s1.39,2.15,2.85,2a2.19,2.19,0,0,0,2-2.35C471.92,640.53,470.72,640,469.34,639.82Zm-134.53,2.55a2.46,2.46,0,0,0-2.48-2.5,2.26,2.26,0,0,0-2.42,2.48,2.07,2.07,0,0,0,2.11,2.21C333.59,644.71,334.4,643.81,334.81,642.37Zm-205-83.27-11.66,3.46C122.62,563.15,126.71,562.52,129.8,559.1Zm547,2.7H668C670.8,563.9,673.72,563.87,676.75,561.8Zm-486.48,1.09c2.63,2,5.17,1.77,7.74,0Zm404.79-63.35a7.36,7.36,0,0,0,1.83,6.51A6.88,6.88,0,0,0,595.06,499.54ZM218.54,553.1c2-.84,2.52-1.48,2.5-2.33a.61.61,0,0,0-1.06-.34,5,5,0,0,0-1.16,1.51C218.73,552.16,219,552.88,218.54,553.1Zm-69.6-71.24-.36-.36a3.34,3.34,0,0,0-.31.67c0,.09.2.22.31.33Z"/><path class="a5947a15-7d67-49f0-845b-3b4ad3fd4066" d="M384.2,343.29c4.06-6.86,8.27-13.57,11.68-20.74,10.46-22.05,10.32-44.25,1.56-66.8-4.87-12.52-11.08-24.57-13.9-37.84a49.58,49.58,0,0,1-.45-20.33c2-10,7.73-16.78,17.81-19.42a51.72,51.72,0,0,1,22.25-.82c15.09,2.64,24.3,11.44,27.79,26.32,4.81,20.49,2.49,40.69-2.75,60.7C439,299.6,417,326.83,384.2,343.29Z"/><path class="edba1953-5ca1-43e6-8b48-25f0114beedd" d="M351.23,552.39c2,1,2.68,3.62,5.09,4.09l-1.54.26c-3.11,2.4-6.76,1.71-10.28,1.78-2.45.06-4.89.09-7.34.13l-2.27,0c-1.76,0-3.53,0-3-2.56.3-1.36-1.2-3.37,1.68-3.87,4-.69,4.53-3.83,4.52-7.22q0-20.49,0-41,0-52.47,0-105c0-4.38-.65-8-5.29-9.91-1.92-.8-.92-3-.87-4.49.06-1.82,1.72-1.14,2.72-1.15,6.16-.06,12.33.17,18.48-.11,3.62-.17,3.47,2.5,4,4.5q5,18.47,9.65,37c.72,2.85,1.36,5.79,3.25,8,1.62,1.88-.11,3.49.26,5,3.06,12.28,6.37,24.49,9.84,37.59,3.09-11.88,6-22.65,8.71-33.46,4.66-18.35,9.3-36.71,13.76-55.11.63-2.61,1.48-3.58,4.21-3.48,5.65.2,11.33.22,17,0,2.64-.1,3.08,1.15,3.09,3.21,0,.36.05.73.07,1.1-3.85,2.1-7,4.17-7,9.65.2,49.1.11,98.2.13,147.3a9.46,9.46,0,0,0,2.76,7.42V549.3q0-72.39,0-144.8c0-2.32.17-4.65.26-7h.63c.06,13.82.17,27.65.18,41.47,0,32-.09,64,.08,96,0,6.88-2,14.22,3,20.41l-.22,2c-1,2.16-2.9,1.12-4.37,1.15-5.82.13-11.65,0-17.48.1-1.16,0-3.36-1-2.93,1.82l-.09,1.39c-1.88-.39-.65-4-3.87-3.43-1.94.33-1-2-1.07-3.11-.05-.93-.84-2.52,1-2.75,5.62-.69,5.52-5,5.55-9,.08-10.66,0-21.32,0-32,0-24.31.29-48.63-.17-72.94-.15-8.14.06-16.24.31-24.48-1.59,1.17-1.63,2.84-2,4.4-6.69,26.92-13.67,53.77-19.87,80.8-1.28,5.58-5.06,4.25-8,4.94s-4.19-1.91-4.89-4.69q-9.18-36.19-18.52-72.35c.79-1.43-.33-1.51-1.27-1.7-.51-3.29.13-6.85-2.41-10.19-.1,1.63-.24,2.77-.24,3.91q0,62.07,0,124.12c0,2.83-.8,6.11,2.32,8.14A2,2,0,0,0,351.23,552.39Z"/><path class="edba1953-5ca1-43e6-8b48-25f0114beedd" d="M319,557.55a16.26,16.26,0,0,1-17.73,2.16c-5.4-2.67-9-8.27-10.26-14.69a47.93,47.93,0,0,1-.95-9.42c0-13.16.12-26.32-.12-39.48-.08-4.65-2.23-7.67-6.24-11.21-5.31-4.68-10.39-2.63-15.53-3.61-2.71-.52-3.26.83-3.25,3.33.09,20.16.06,40.32.05,60.47a11.07,11.07,0,0,0,1.07,5.32c.8,2.67,1.84,1,2.83.16l3.09,4.94c0,.8-1.34,1.05-.88,2.06-1,1.79-2.68.87-4,.9-6.64.13-13.29.11-19.94.14l-2.29,0c-1.27-.34-3.42.44-3-2.08.22-1.4-1.29-3.57,1.34-4.09,4.63-.91,4.84-4.38,4.83-8v-52c0-31.49-.08-63,.11-94.46a9.56,9.56,0,0,0-4.83-8.89c-2.19-1.29-1.39-2.78-1.43-4.2-.08-2.49,2-1.69,3.3-1.69,11.16-.05,22.32-.08,33.48,0,13.58.1,23.65,7,31.82,17.09,3.38,4.21,2.62,9.72,2.92,14.53a248,248,0,0,1,.08,33.94c-.93,12.46-6.79,22.48-18.63,28.2.77,2.53,3.38,2.56,5,3.59,7.7,4.85,7.81,12.39,7.86,20.05.1,14.49.14,29,.23,43.47a14.37,14.37,0,0,0,1.15,6.35c.48,1,1.19.89,1.82,0l.93-.9c.18,2.09.19,5,3.29,3.74,4.18-1.72,3.67.9,3.83,3.27A3.65,3.65,0,0,0,319,557.55Zm-52.22-83.28,2.47,0c18.76.59,26.9-7.22,26.94-25.93,0-12.13,0-24.27-.09-36.41a22.22,22.22,0,0,0-8.08-17.47c-.77-2.34-2.69-3.27-4.81-4-5.34-1.79-10.85-.76-16.27-1-2.5-.13-2,1.68-2,3.05q0,39.33,0,78.66C265.05,472.37,264.16,474.41,266.82,474.27Zm43.89,77.5c-.11-.06-.25-.2-.32-.17-.46.2-.47.45,0,.67.07,0,.26-.07.32-.16S310.7,551.89,310.71,551.77Z"/><path class="edba1953-5ca1-43e6-8b48-25f0114beedd" d="M552.81,551.56c2.21.93,4,2.34,3.57,5-.49,2.85-3,2-4.81,2-3.48.07-7,0-10.45,0-1.25,0-2.39,0-2,1.8l-.17,1.48c-1.78-.52-.46-3.93-3.76-3.54-1.93.24-.81-2.37-1-3.69s.16-2.05,1.8-2.21c4.24-.42,5.22-3.44,5.22-7.13q0-73.91.09-147.82a8,8,0,0,0-5-7.45c-3-1.22-2.1-2.94-2.1-4.58,0-2.8,2.36-1.72,3.75-1.74,6-.12,12,.21,18-.15,3.64-.22,4.81,2.33,5.21,4.51,1,5.44,1.68,10.8,5.38,15.31,1.66,2-.13,4.61.28,7.09.86,5.19,4.48,8.68,6.54,13.07l.14,0c-1.48.55-1.15-1.32-2.76-1.74,1.11,4.36,2,8.16,4.1,12.08,2.23,4.14,1.32,9.64,3.29,14.23,0,.08.31.13.4.08a6.24,6.24,0,0,0,.69-.58l1.17,0c.21.66.43,1.31.65,2l-1.73,1.57,1.73.43c2.24,8.35.81,17.71,6.9,25-2.09,1-.4,1.95,0,2.93-1,4.11,2.43,6.91,3.1,10.49,1.49,8,3.77,15.75,6,23.53a62.91,62.91,0,0,0,4.6,14.73c.09-3.74,2.37-7.19,1-11,0-39.13-.11-78.27.06-117.4,0-5-1.93-8.13-6.08-10.19-2.19-1.09-1-2.89-1.17-4.36-.17-1.66,1.2-1.67,2.41-1.67,5.66,0,11.33.11,17,0,2.35-.07,2.24,1.32,2.33,2.82v2.34c-7,2.53-7.16,2.74-7.17,11.19q0,76.91.09,153.82c0,3.75-.71,5.22-4.78,4.93s-8-.59-11.92.29l-1.57-.25c-3.19.32-3.13-2.31-3.68-4.21q-14.16-48.9-28.24-97.81c-2-7-4-14-6-21-.31-1.75-.22-3.74-2.56-4.28-.19-3.23,0-6.54-2.09-9.79a9.77,9.77,0,0,0-.35,1.67q0,61.28,0,122.55c0,2,0,4.05,2.14,5.19C551.32,552,552.16,551.44,552.81,551.56Z"/><path class="edba1953-5ca1-43e6-8b48-25f0114beedd" d="M181,388.39c-5.19,1-6.35,4.56-6.32,9.36q.32,64.69.43,129.39a56.83,56.83,0,0,0,2.35,16.25,18.55,18.55,0,0,0,9.31,10.82c5.71,3,12.32-.18,15.85-6.59,3.39-6.14,4.32-13,4.34-19.79.17-43.8.11-87.6.23-131.4,0-3.24-1.82-6.22-3.81-6.83-3.16-1-2.24-2.8-2.24-4.47,0-2.95,2.44-1.59,3.74-1.62,7.33-.13,14.66-.11,22,0,1.23,0,3.34-1,3.35,1.58,0,1.77.92,4.11-2.39,4.34-1.9.13-2.73,1.83-2.94,3.56a62.06,62.06,0,0,0-.54,7.45c0,41.64-.53,83.28.19,124.9.36,20.56-17.29,37-37,35.36-16.31-1.4-29.26-15.3-29.35-33.29-.16-30-.13-59.95-.17-89.93,0-13.32-.1-26.65.05-40a8.63,8.63,0,0,0-4.92-8.13c-2.27-1.2-1.39-2.72-1.52-4.16-.19-2.14,1.55-1.73,2.79-1.74,8,0,16,.1,24-.08,2.49-.05,2.54,1.41,2.8,3Z"/><path class="edba1953-5ca1-43e6-8b48-25f0114beedd" d="M633.26,471.6c.56-17-.53-35.32,1.59-53.58,2.24-19.26,11.25-30.39,27.64-34,13.82-3,33.37,6,38.67,18.91,1.62,3.92,1.14,9.08,1.44,13.66,2.49,37.24,3.64,74.54.09,111.75-2.1,22-20.11,32.65-36.89,31.36-14-1.08-26.37-11.52-29.88-26.51-2.75-11.79-2.29-23.83-2.61-35.79C633.08,489.24,633.26,481.08,633.26,471.6Zm42.61-80.08c-3.36-2.42-7.11-2.35-10.87-1.47-8.24,1.93-13.48,8.59-14.1,18.92-1.42,23.6-.48,47.24-.56,70.86-.06,17.64-.67,35.29.42,52.9.36,5.67,1.53,10.73,5.9,15.66,4.78,5.4,9.74,6.43,15.79,5.68,6.54-.82,10.71-4.79,12.79-11.08,1.86-5.62,2.18-11.42,2.2-17.23.09-26.63.22-53.25,0-79.87-.07-12.47.78-25-.69-37.41-.76-6.46-1.92-13.1-9.89-15C676.49,392.86,677.23,391.63,675.87,391.52Z"/><path class="edba1953-5ca1-43e6-8b48-25f0114beedd" d="M115.18,480.43c-.42-.94.35-2.66-1.46-2.67-3.9,0-2.3-2.92-2.4-4.69-.15-2.83,2.16-1.88,3.61-1.88,8.67,0,17.34.37,26,0,4.41-.18,8.29.54,11.36,3.51,1.72,1.66,1.07,4.06,0,6.27-.51-.41-1-.65-.94-.77.38-1.51,1.14-4.44-.13-4.14-2.11.51-5,.95-6.27,3.65-.94,2.07-.8,4.23-.8,6.38q0,34,0,68c0,1.83.92,4.58-1.89,4.82-1.81.15-4.37.49-5.32-2.71-.83-2.81-3.61-1.77-5.56-1.16-4.11,1.31-8.09,3-12.17,4.36-5.74,2-11.82.57-17.75,1.53-3,.49-6.83-2.21-9.91-4.46-11-8-16.3-18.87-17.5-32.23-2-22-.91-44-1-65.93-.06-15.31-.41-30.62,2-45.87,3.93-24.58,28.42-37.32,50.87-26.15,6.39,3.18,6.23,3,11.07-2.4,1.57-1.77,4.74-2.5,5.84.54.76,2.09,1.92,1.8,3.24,2.1l-1,1c-2.11-.47-2,.95-2,2.32,0,3.15.11,6.3,0,9.44-.37,9.35.94,18.74-.77,28.05l-.14,1.33c-6.77-4.46-5.13-12.1-6.91-18.42-2.16-7.67-4.57-14.64-13.11-18.06-2.76-1.11-4.93-3.88-8.53-4-12.55-.49-20.2,5.44-22.47,17.81a51.4,51.4,0,0,0-.92,8.91q-.09,56.43,0,112.86A67.65,67.65,0,0,0,92,541.59c.75,3.62,4.61,4.29,5.88,7.57,1.67,4.32,6,5.39,10.35,5.58,12,.51,18-4.74,18.93-16.72,1.3-17.62.44-35.27.66-52.91,0-1.49.16-3.07-1.63-3.8,0-.77.19-1.68-1-1.8-3-2-5.95-3.61-9-.12Z"/><path class="edba1953-5ca1-43e6-8b48-25f0114beedd" d="M442,561.79c-1.78-.5-.47-3.82-3.76-3.53-2.16.19-.87-2.65-1.09-4.1-.27-1.8,1.16-1.6,2.32-1.61,5.48,0,7.41-3.62,8.25-8.26Q457.88,488.15,468,432c2.66-14.71,5.4-29.41,8-44.13.47-2.66,1.31-4.22,4.43-3.79,3.73.51,8.18-1.53,10.54,3.37.27.56.64.55-.17,1.23-1.28,1.07-.3,2.14-.14,3.16q7.26,46.31,14.58,92.59c3.18,20,6.53,40,9.58,60.06.73,4.83,3.72,7.34,7.8,7.89,3.65.49,2,2.76,2.3,4.27.54,2.65-1.7,1.84-3,1.85-8.15.07-16.31,0-24.46.11-1.2,0-3.68-1.45-3.48,1.76l-.12,1.43c-1.78-.51-.55-3.88-3.8-3.49-2.1.26-.82-2.33-1.1-3.61s0-2.2,1.75-2.17c4.34.09,5.44-2.71,4.94-6.31-1.16-8.4-2.66-16.76-3.76-25.18-.36-2.8-2-2.5-3.85-2.5a245.37,245.37,0,0,1-25.83-.89h28.59c.28-2.19-.72-2.29-1.79-2.29-8.83,0-17.66.11-26.48-.07-2.84-.06-3.26,1.44-3.6,3.59-1.4,8.87-2.94,17.72-4.25,26.61-.28,1.88-2.58,5.62,2.67,4.36,0,2.65,4,2.67,3.57,5.59l-.16,1.87c-1.22,1.42-2.87,1.25-4.49,1.24q-5.91,0-11.82,0c-1.2,0-2.85-.45-2.43,1.81C442.06,560.83,442,561.31,442,561.79Zm36.45-127.87-1.07-.88c.86-3.33-.27-6.48-.87-10.92-.7,2.89-1.2,4.62-1.52,6.38q-3.19,17.64-6.32,35.29-3.7,20.83-7.34,41.69c-.2,1.17-1.48,3.18,1.37,3.18,7.94,0,15.89-.15,23.82.14,3.47.12,3.76-1.21,3.29-4.05Q484,469.35,478.42,433.92Z"/><path class="edba1953-5ca1-43e6-8b48-25f0114beedd" d="M698.28,600.08q-308.71,9.25-617.56,0Q389.47,590.82,698.28,600.08Z"/><path class="a5947a15-7d67-49f0-845b-3b4ad3fd4066" d="M383,250.7c-32.28-13.83-50.87-37.83-57.06-71.61a87.21,87.21,0,0,1-1.45-23.83c1.86-20.56,17.59-26,32.56-25.13,12,.66,18,7.87,18.82,21,.54,8.67-1.92,16.8-4.42,24.91-3.1,10-6.28,20.07-6.21,30.68.08,14.2,5.61,26.5,13.94,37.73C380.55,246.24,382.52,247.68,383,250.7Z"/><path class="edba1953-5ca1-43e6-8b48-25f0114beedd" d="M390,116.9H328.57c-7.27,0-7.27,0-7.27-7.52,0-4.32-.12-8.66,0-13,.21-5.87,3.23-9,9-9q60.17-.09,120.32,0c5.75,0,8.8,3.17,9,9,.18,4.82-.2,9.67.11,14.48.29,4.52-1.24,6.12-5.93,6.07C432.58,116.78,411.28,116.9,390,116.9Z"/><path class="a5947a15-7d67-49f0-845b-3b4ad3fd4066" d="M381.75,356.59c-22.57-13.48-30.37-35.61-26.66-59.48,1.86-11.93,12.65-17.69,24-13.42a10.16,10.16,0,0,1,6.91,9,26.64,26.64,0,0,1-2.17,13.65c-1.37,3.2-2.74,6.42-4.29,9.54q-9.66,19.46,1.48,38.05a16.27,16.27,0,0,1,.89,1.77C382,355.77,381.87,355.94,381.75,356.59Z"/><path class="ae3126ba-6f06-44b3-a60a-238a9e38c73b" d="M692.77,342.38c-58.25,2-116.51,2.9-174.79,3.42-11.65.11-23.31.07-35,.43-3.69.12-4-1.47-3.94-4.4.08-2.65-.21-4.6,3.72-4.58q89.18.33,178.31,2.81c8.07.22,16.21-.26,24.25,1.35,2.31.46,4.87-.31,7.31-.52C692.7,341.39,692.74,341.88,692.77,342.38Z"/><path class="ae3126ba-6f06-44b3-a60a-238a9e38c73b" d="M87.31,341c43.78-1.43,87.58-2.29,131.39-2.84,23.15-.3,46.3-.4,69.45-.8,3.64-.07,4.32,1.11,4.35,4.47,0,3.52-1,4.4-4.49,4.36-67-.67-133.92-1.59-200.85-3.69Z"/><path class="a5947a15-7d67-49f0-845b-3b4ad3fd4066" d="M398.87,357c14.54-5.08,23-15.35,27-29.76A24.48,24.48,0,0,1,433.25,315c3.86-3.38,8.09-4.26,12.89-2,7.56,3.57,9.88,9.6,5.28,16.54-9.46,14.28-22.36,23.9-39.57,26.91C407.61,357.24,403.34,357.88,398.87,357Z"/><path class="a5947a15-7d67-49f0-845b-3b4ad3fd4066" d="M446.2,181.08c1.85-15.27-3.41-27.42-14.14-37.56-4.46-4.21-9-8.48-11.26-14.44s-1.76-6.6,4.25-6.61c5.66,0,11.32,0,17,0,1.93,0,3.45.14,4.47,2.23,9,18.29,11.49,36.68,1.1,55.34C447.46,180.27,447.1,180.41,446.2,181.08Z"/><path class="a5947a15-7d67-49f0-845b-3b4ad3fd4066" d="M328,302.47c6.95-8.89,8.06-18.14,4.47-28.14-1.56-4.36-3.54-8.62-3.58-13.41-.07-6.43,2.24-9.76,7.45-10.51,7.4-1.06,12.77,1.65,14.48,7.45,1.4,4.74,1.06,9.51.25,14.33-2,12.08-7.57,21.88-18.07,28.56a25.44,25.44,0,0,1-3,1.69C329.59,302.63,329,302.47,328,302.47Z"/><path class="accb86bb-ae56-4b03-a838-3bd02f4cabf5" d="M428.65,173.59a50.24,50.24,0,0,0-28.47.09c-2.37.7-2.61-.53-2.15-2.26,1.08-4.06,2.69-8,5.69-10.93,2.37-2.35,2.52-4.84,1.89-7.72a34.77,34.77,0,0,0-16.78-23.11c-1.19-.72-4.27-.72-2.75-3.37,1.13-2,2.92-3.66,5.78-2.57a36.1,36.1,0,0,1,13.48,9.18,56.21,56.21,0,0,1,11.6,19.59,11.21,11.21,0,0,0,4,5.45A29.35,29.35,0,0,1,430.57,171C431.34,172.93,431.56,174.39,428.65,173.59Z"/><path class="ae3126ba-6f06-44b3-a60a-238a9e38c73b" d="M132.57,713c-.9,1.77-1.86,3.52-2.7,5.32s-1.44,2.67-3.7,1.53-2.3-2.14-1.24-4.19c3.43-6.64,6.67-13.38,9.95-20.09.74-1.51,1.38-3.43,3.47-1.86,1.81,1.37,5.87.84,4.59,5.1-1.08,3.59-2.88,7-3.06,11.49,3.35-2.62,5.19-5.78,7-8.77,2.54-4.15,4.72-.87,7.05-.12,3.41,1.1,1.35,3,.58,4.61-3.11,6.42-6.32,12.79-9.46,19.2-.83,1.69-1.33,3.28-3.93,2.08s-2.29-2.61-1.19-4.66c.62-1.17,2-2.39.74-4.07-2,.59-2.49,2.55-3.62,3.9-.9,1.08-1.53,2-3.22,1.13-1.5-.79-2.47-1.49-1.85-3.4s1.15-4.15,1.71-6.24a2.07,2.07,0,0,0,0-2.32C133.36,712.06,133,712.52,132.57,713Zm7.36-2.18-.32-.35a2.65,2.65,0,0,0-.3.61c0,.07.19.2.29.3Z"/><path class="ae3126ba-6f06-44b3-a60a-238a9e38c73b" d="M309.71,765.41c-1.71,2.61-1.44,5.17-1.84,7.58-.3,1.77-.23,3.71-3.19,3.09-2.27-.48-3-1.28-2.64-3.63,1.2-7.38,2.16-14.79,3.33-22.16.2-1.27-.07-3.16,2.39-3,2,.17,3.5.45,3.68,2.94a19.74,19.74,0,0,0,2.17,8.15,70.13,70.13,0,0,0,1.25-7.4c.16-2.38,1.21-2.71,3.22-2.26,1.79.4,2.88.73,2.45,3.19-1.35,7.68-2.37,15.42-3.45,23.15-.2,1.46-.35,2.63-2.28,2.36-1.63-.22-3.4-.05-3.7-2.4C310.71,772,310.22,768.91,309.71,765.41Z"/><path class="edba1953-5ca1-43e6-8b48-25f0114beedd" d="M395.27,765c0-2.6.14-5.22,0-7.81s1-3,3.21-3.07c2.52-.08,2.56,1.23,2.54,3.07-.07,7.47,0,14.94-.07,22.41,0,1.37.58,3.21-1.91,3.13-1.77,0-3.53.41-4.18-2.27-.6-2.43-.8-5.15-2.73-7.36-1.44,2.15-.71,4.33-.73,6.36s-.12,3.36-2.84,3.37-2.75-1.47-2.73-3.44c.08-7.3.06-14.6.14-21.91,0-1.49-.72-3.43,2.14-3.42,2.1,0,3.4.41,3.9,2.73.61,2.82,1.58,5.57,2.4,8.35Z"/><path class="a5947a15-7d67-49f0-845b-3b4ad3fd4066" d="M331.08,323.59c10.27-.09,12.54,2,12.28,12.73-.2,8.19,2.25,15,9.58,20.34-12.4-1.35-24.93-14.53-25.57-25.61-.19-3.45,2.54-5,3.78-7.5Z"/><path class="ae3126ba-6f06-44b3-a60a-238a9e38c73b" d="M261.25,744c-1.4,5.31-2.61,11.69-4.8,17.71-1.74,4.82-6.12,3.26-9.87,2.57s-5.34-1.74-3.85-6.15A179.44,179.44,0,0,0,247.82,738c.54-2.52,1.64-3,3.74-2.25C255.52,737.11,261,736.62,261.25,744Zm-7.81-2.22c-2.29,4.7-2.61,10-4.2,14.94-.27.83-.85,2.15.42,2.57,1.51.48,1.94-.88,2.23-2,1.05-4.16,2.09-8.33,3.08-12.51C255.23,743.62,255.39,742.4,253.44,741.78Z"/><path class="ae3126ba-6f06-44b3-a60a-238a9e38c73b" d="M570.91,749.73c-.24,4.36-2.63,6.28-6.22,7.11s-6.42-.35-7.64-3.8c-2.31-6.56-4.19-13.27-6.46-19.84-1-2.79,1.13-2.42,2.5-3.07,1.69-.81,2.57-.73,3.19,1.35,1.7,5.72,3.64,11.36,5.51,17,.39,1.15.32,3.21,2.09,2.73,2-.55.56-2.19.21-3.3-1.66-5.38-3.33-10.76-5.15-16.09-.74-2.17-.8-3.53,1.86-4.34,2.38-.74,3.22.09,3.85,2.19C566.71,736.51,568.89,743.28,570.91,749.73Z"/><path class="ae3126ba-6f06-44b3-a60a-238a9e38c73b" d="M480.13,758.11c-1,5.34,2.32,10,2.41,15.22,0,2.21-.32,3-2.46,3.13-1.7.09-3.29.53-3.38-2.11a51.46,51.46,0,0,0-.91-6.39c-.19-1.14-.42-2.59-2-2.25-1.27.27-.76,1.62-.66,2.53.24,2,.5,4,.88,5.9.41,2.1.2,3.27-2.48,3.54s-3.16-.71-3.44-2.85c-.92-6.9-1.79-13.81-3-20.66-.58-3.4-.05-4.85,3.85-5.34C477.4,747.76,480.09,749.71,480.13,758.11Zm-5.88-.17c-.5-1.41.42-3.59-1.78-4.16-1-.24-1.43.92-1.05,1.73.74,1.54-.54,4,1.61,4.68C474.17,760.56,474.29,759,474.25,757.94Z"/><path class="ae3126ba-6f06-44b3-a60a-238a9e38c73b" d="M531.08,736.57c2.87.13,5.07,1.25,5.85,4,1.63,5.73,3.26,11.48,4.47,17.31.84,4-1.76,5.95-5.36,7-7,2.13-7,2.22-8.79-4.61-1.49-5.77-2.66-11.65-4.5-17.31-1.12-3.46-.11-4.72,3.12-5.22C527.67,737.46,529.42,737,531.08,736.57Zm4.36,21.07-3.6-13.95a1.55,1.55,0,0,0-1.83-1.26c-1.23.15-1,1-.8,1.85,1.22,4.65,2.46,9.29,3.68,13.93.21.81.29,1.73,1.5,1.34A1.42,1.42,0,0,0,535.44,757.64Z"/><path class="ae3126ba-6f06-44b3-a60a-238a9e38c73b" d="M281,771.74c-6.49.08-9.34-3.33-8.33-9,.85-4.73,1.66-9.47,2.72-14.16s4.32-6.9,8.66-5.89c4.56,1,6.44,4,5.52,8.9s-1.76,9.44-2.75,14.14C286.08,769.35,284.29,771.91,281,771.74Zm-2.52-7.92c-.22,1-.38,2.19.9,2.38s1.42-1,1.62-2c.91-4.51,1.84-9,2.74-13.54.2-1,.38-2.19-.94-2.37s-1.5,1-1.7,2Q279.82,757,278.5,763.82Z"/><path class="ae3126ba-6f06-44b3-a60a-238a9e38c73b" d="M179.58,714.61c-1.94,7.7-3.83,15.41-5.91,23.07-.26,1,.16,3.6-2.53,2.27-1.52-.75-3.67-.77-3.1-3.57.25-1.28,2.37-3-.34-4.12s-2.67,1.48-3.24,2.61c-1.42,2.82-3.06.93-4.56.49-2.49-.72-1.15-2.19-.46-3.38,3.89-6.74,8-13.36,11.62-20.22,1.46-2.75,3.07-1.91,4.75-1S180.43,711.32,179.58,714.61Z"/><path class="ae3126ba-6f06-44b3-a60a-238a9e38c73b" d="M502,743.25c3.4-.21,5.66,1.64,6.44,5.18,1.18,5.32,2.35,10.65,3.25,16,.74,4.48-1.91,6.88-5.92,7.71s-7-.45-8-4.63c-1.34-5.62-2.6-11.28-3.5-17C493.63,746.35,497,743.33,502,743.25Zm-.53,5.36c-1.21.35-1.46,1.21-1.24,2.32q1.39,6.83,2.77,13.66c.21,1,.52,2.15,1.72,2,1.35-.17,1.14-1.4.94-2.38-.92-4.56-1.89-9.11-2.81-13.66A2.52,2.52,0,0,0,501.51,748.61Z"/><path class="ae3126ba-6f06-44b3-a60a-238a9e38c73b" d="M369.93,777.14c-.14,2.42,1.7,6.13-3.54,5.15-2.45-.46-1.94-2.33-2.15-3.85-.17-1.22-.2-2.31-1.89-2.28-1.44,0-1.39,1.12-1.68,2-.35,1.08-.48,2.81-1.17,3.08a7.19,7.19,0,0,1-4.31.07c-1.85-.52-.43-2-.28-2.88,1.33-7.51,2.91-15,4.17-22.5.61-3.68,3.12-2.55,5.28-2.61s3.7-.12,3.84,2.95C368.51,763.25,369.32,770.19,369.93,777.14Zm-5.75-14.75-1-.21a55.55,55.55,0,0,0-1.25,5.66c-.15,1.17-.86,3.23.83,3.35,2.35.16,1.29-2.14,1.41-3.39C364.31,766,364.18,764.19,364.18,762.39Z"/><path class="ae3126ba-6f06-44b3-a60a-238a9e38c73b" d="M274.57,652.11c-.36,8.83-5.35,16.28-12.05,18.45-7.29,2.36-13.62-1.41-14.66-9-1.08-7.87,1.44-14.52,7.89-19.28a12,12,0,0,1,13.19-1.11C273.55,643.56,274.54,647.89,274.57,652.11Zm-4.43.45a16.78,16.78,0,0,0-.25-3.28c-.76-3.17-2.07-6-5.66-6.87a7.8,7.8,0,0,0-8.66,3.49c-3.68,5.36-4.83,11.27-2.65,17.48s7.88,7.32,12.46,2.59C268.78,662.46,270.11,658.08,270.14,652.56Z"/><path class="ae3126ba-6f06-44b3-a60a-238a9e38c73b" d="M413.72,669.82c-3.68,1.25-7.15.81-11,.32,5-2.23,4.27-6.9,5.08-10.78s1.23-7.88,1.83-11.82c.39-2.57,1.39-5.39-3.06-6.38,5.85-.71,11.32-1.93,16.54.46,4.41,2,4.63,8,.73,11.83-5.23,5.1-5.22,5.21-1.69,11.67a16.77,16.77,0,0,0,4.46,5c-2.83,2.26-5.06,1.46-6.55-1.13-1.65-2.85-2.83-6-4.24-9-.64-1.35-1.21-2.89-3.16-2.56s-1.69,2-1.61,3.16C411.26,663.74,407.77,668,413.72,669.82Zm-1.62-18c-.12,3.32-.07,3.39,2.14,3.47,4.22.17,8.25-3.47,8.24-7.59,0-3.66-2.16-5.7-5.64-5.38C409.82,643,414.83,649.63,412.1,651.83Z"/><path class="ae3126ba-6f06-44b3-a60a-238a9e38c73b" d="M637.23,701.55c-.94,2.86.84,4,3.12,4.89,2.47.94,5.1,1.58,7.37,2.88a8.39,8.39,0,0,1,4.31,8.83c-.46,3.48-3.11,4.87-6.2,5.56a5.92,5.92,0,0,1-7.11-3.15c-.64-1.17-2.26-2.64-.11-3.66,1.44-.67,3.27-3.17,4.85.06.53,1.08,1.33,2.18,2.61.94s.16-2.3-.56-3c-1.81-1.86-4.42-2.16-6.76-2.89a10.57,10.57,0,0,1-7.27-6.85c-1.42-3.88.06-6.5,3.43-8.19s6.54-1.47,8.68,2c.78,1.27,2.94,2.89.17,4.49-1.88,1.08-3.63,1.92-4.65-1C638.87,701.73,638.27,701.45,637.23,701.55Z"/><path class="ae3126ba-6f06-44b3-a60a-238a9e38c73b" d="M451.09,762.33c.68,4-.75,7.18-5.54,7.89-2.15.31-2.25,1.33-1.95,3,.26,1.47.12,3,.41,4.47.5,2.56-.85,3-3,3.31-2.36.33-2.84-.73-3-2.72-.59-7.29-1.15-14.59-2-21.86-.39-3.23.57-4.1,3.8-4.34C449.12,751.43,450.68,752.6,451.09,762.33Zm-7.15,3.35c1.94-3.14,1.16-5.62.43-8-.06-.2-1.53-.33-1.67-.09-1.22,2,.17,4.11.15,6.19C442.84,764.15,443.29,764.56,443.94,765.68Z"/><path class="ae3126ba-6f06-44b3-a60a-238a9e38c73b" d="M585.55,724.48c1.18,6.13,4.09,11.47,6,17.25,2.48-1,1.37-2.28,1.22-3.24-.45-2.7,2-2.16,3.22-2.86,1.71-1,2.32.5,2.74,1.78,1.24,3.78.52,6.88-3.27,8.8s-7.79,1.16-9.38-2.49A170.26,170.26,0,0,1,579.85,727c-1.29-4,.9-6.64,4.68-8s6.58-.33,8.31,3.18c.61,1.23,2.48,3-.14,4.1-1.71.7-4,2.72-5-1.07C587.55,724.51,586.83,724.35,585.55,724.48Z"/><path class="ae3126ba-6f06-44b3-a60a-238a9e38c73b" d="M200.67,725.74a96.43,96.43,0,0,0-6.14,17.11c1.87.81,2.17-.22,2.53-1.12,1.11-2.86,2.92-1.07,4.5-.66,2.44.62,1.33,2.09.81,3.44-1.5,3.89-4.22,5.37-8.27,4.17s-6.5-3.7-5.17-8.09c1.73-5.7,3.7-11.34,5.92-16.86,1.56-3.85,5-4.06,8.43-2.9s5.58,3.78,4.59,7.65c-.32,1.26.29,4.24-3,3.2-2-.64-4.42-.87-3-4.07C202.21,727,202,726.32,200.67,725.74Z"/><path class="ae3126ba-6f06-44b3-a60a-238a9e38c73b" d="M309.92,665.38c2.95,2.5,6.62,2.73,9.63,4.34,1.9,1,4.12,2,3.91,4.6-.19,2.46-2.14,3.56-4.23,4.43a16.06,16.06,0,0,1-10.28.55c-1.86-.47-3.94-1.23-4.14-3.72-.17-2.17,1.35-3.26,3-4.21.79-.47,1.6-.9,2.76-1.54-3.09-2-7-3.64-1.5-6.84,1.41-.82.13-2.09,0-3.14-1-7,2.63-10.65,9.71-9.77a13.23,13.23,0,0,0,2.95,0c1-.11,2.05-.42,2.29,1a1.47,1.47,0,0,1-1.22,1.86c-2.59.13-2.34,1.43-2.24,3.51.2,4-2.1,6.5-6.17,7.08C312.87,663.73,311.29,663.53,309.92,665.38ZM314.79,678c1.9-.47,4.67-.12,4.36-2.91-.32-3-3.1-3.56-5.63-3.59-2.18,0-4.84.39-4.51,3.21C309.37,677.83,312.53,677.49,314.79,678Zm3-21.78c-.56-1.73-.64-4-3.09-3.8-2.93.25-2.83,2.73-2.73,4.86.1,1.91.76,3.81,3.13,3.45S317.68,658.15,317.77,656.19Z"/><path class="ae3126ba-6f06-44b3-a60a-238a9e38c73b" d="M226.78,746.22c-3.35-1.26-2.65,1.49-3.18,2.64-.63,1.36-1.67,3.17,1.09,3.81,2,.46,3.55,1.07,2.48,4-1.12,3-2.75,1.45-4.31,1-7.42-2.06-7.42-2.07-5.26-9.21,1.72-5.7,3.62-11.35,5.07-17.12.73-2.9,1.9-3.48,4.48-2.32a23.19,23.19,0,0,0,4.27,1.31c1.69.4,3.24.64,2.66,3.13-.54,2.32-1.6,3-3.8,2.07s-2.94.11-3.34,2.15c-.28,1.45-1.25,3,1.06,3.43,2.11.39,2.65,1.28,2.1,3.39C229.48,746.88,228.09,746.67,226.78,746.22Z"/><path class="ae3126ba-6f06-44b3-a60a-238a9e38c73b" d="M475,651.76c2.63-.07,5.29-4.91,7.51.41.6,1.44,1.54-.29,2.2-.74,2-1.33,3.93-2.61,6.41-1.21,2.25,1.29,2.29,3.61,2.33,5.71a18.2,18.2,0,0,1-3.8,12.11,8.16,8.16,0,0,1-5.94,3.26,2.12,2.12,0,0,1-2.4-2,1.56,1.56,0,0,1,2.25-1.74c2.95,1.07,4.43-.45,5.34-2.86,1.29-3.41,3.06-7,.78-10.48-1.89-2.85-4.15-1.05-5.75.71-2.71,3-3.14,6.91-3.83,10.64-.64,3.42-.91,6.91-1.28,10.38-.18,1.66,0,3.72-2.48,3.4s-1.24-2.35-1.06-3.56c.9-6.25,1.79-12.51,3.07-18.69C479,654,478.69,652.22,475,651.76Z"/><path class="accb86bb-ae56-4b03-a838-3bd02f4cabf5" d="M551.24,431.37c2.34.54,2.25,2.53,2.56,4.28-1.82,1.62-.89,3.76-.89,5.62q-.13,55.14-.1,110.29c-.65-.12-1.49.41-1.88-.57q0-58.33,0-116.68A24.54,24.54,0,0,1,551.24,431.37Z"/><path class="accb86bb-ae56-4b03-a838-3bd02f4cabf5" d="M92.85,533.26V415.6h1V533.3Z"/><path class="ae3126ba-6f06-44b3-a60a-238a9e38c73b" d="M606.83,716.13c-2.29,1-2.24-1.17-2.89-2.29-.91-1.57-.09-2.35,1.38-2.94,2.91-1.18,5.79-2.48,8.67-3.74,1.17-.51,2.41-1.61,3.16.5.52,1.44,2.18,3.06-.47,4s-1.42,2.42-.76,3.89c2.21,5,4.39,10,6.64,15,.91,2,1.91,3.56-1.21,4.93-3.35,1.47-3.56-.9-4.37-2.71-2.15-4.84-4.19-9.74-6.37-14.58C609.92,716.7,609.54,714.25,606.83,716.13Z"/><path class="accb86bb-ae56-4b03-a838-3bd02f4cabf5" d="M591.72,558.68l1.57.25c3.1,2.93,6.9,1.28,10.34,1.38,8.6.26,8.6.09,8.6-8.45q0-74.14,0-148.3c0-2.71-.31-5.5,1.77-8v7.74c0,51.09-.06,102.19.1,153.29,0,4.52-1,6.29-5.74,5.8a75.92,75.92,0,0,0-12,0C593.51,562.57,592,561.54,591.72,558.68Z"/><path class="ae3126ba-6f06-44b3-a60a-238a9e38c73b" d="M337.79,651.48c2.74.33,6.61-5.06,7.5,1.6a27.85,27.85,0,0,1,3.58-2.63c4.1-2.14,7.51-.19,7.42,4.39-.06,2.8-1,5.58-1.1,8.38-.07,1.47-2.17,4.2,1.76,4.24.9,0,.88.9.4,1.44a6.87,6.87,0,0,1-4.35,2.21c-1.44.19-2.06-1.05-1.93-2.29.3-2.8.89-5.57,1.2-8.38s2.58-6.6-1.54-7.68c-3.57-.94-4.65,3-5.81,5.66a27.47,27.47,0,0,0-1.87,9.24c-.08,1.3.67,3.61-1.66,3.36s-2.66-2.22-1.81-4.22c1.25-3,1.25-6.17,1.67-9.29C341.63,654.66,341.57,652.3,337.79,651.48Z"/><path class="ae3126ba-6f06-44b3-a60a-238a9e38c73b" d="M371.25,666.59c-1,1.44-1.55,2.58-2.43,3.26-3.25,2.52-5.95,1.59-7.18-2.33-2.46-7.83,5.27-18.16,13.41-18,2.25,0,2.41,1.45,2.16,3-.53,3.28-1.4,6.51-1.77,9.8-.22,2-2,4.62,1.68,5.69,1.29.37.36,1.45-.17,1.81-1.31.89-2.77,2.34-4.35.69C371.94,669.83,371.89,668.57,371.25,666.59Zm-6.54-3.34c.1,1.58-.46,3.86,1.7,4.52s3.15-1.35,4.06-2.9a21.87,21.87,0,0,0,2.77-9.37c.1-1.11.5-2.41-.92-3a3,3,0,0,0-3.13,1A14.19,14.19,0,0,0,364.71,663.25Z"/><path class="ae3126ba-6f06-44b3-a60a-238a9e38c73b" d="M333.4,777.12c.81-7.79,1.78-15.52,2.36-23.27.21-2.83,1.61-2.6,3.56-2.49,1.79.11,2.73.53,2.48,2.62-.92,7.89-1.81,15.79-2.52,23.71-.21,2.32-1.12,2.75-3.17,2.26C334.49,779.56,332.58,779.66,333.4,777.12Z"/><path class="accb86bb-ae56-4b03-a838-3bd02f4cabf5" d="M380.06,281c-5.48-1.15-10.17-1.89-15.29-.76,5.69-6,8-14.24,14.44-19.38a16.59,16.59,0,0,1,4.42-2.19,1.72,1.72,0,0,1,2,1.07c.56,1-.34,1.39-1,1.86a22.68,22.68,0,0,0-4,3c-3.21,3.63-5.75,7.47-2,12.35C379.36,277.76,379.45,279.05,380.06,281Z"/><path class="accb86bb-ae56-4b03-a838-3bd02f4cabf5" d="M178.25,456.25c1.53,5.55.61,11.22.68,16.82.21,18.33.13,36.65.14,55,0,1.6.23,3.25-.76,4.67-1.12,0-1-.85-1-1.4q-.06-37.46-.05-74.92Z"/><path class="ae3126ba-6f06-44b3-a60a-238a9e38c73b" d="M441.41,665.66c-1.76,4-5.24,6.4-8.47,5.48-3.75-1.06-5.15-4-5.18-7.61,0-5.42,1.45-10.25,6.54-13,2.71-1.49,5.78-1.65,7.34,1.51,1.4,2.85-.82,4.59-3.16,5.83a39.17,39.17,0,0,1-3.6,1.67c-1.91.8-3.74,1.71-3.46,4.2.2,1.85.77,3.66,2.7,4.46s3.51-.1,4.91-1.45C439.68,666.07,440.13,664.87,441.41,665.66Zm-9.56-7.12c2.95-1.64,6.35-1.68,6.62-5.28.07-.86-1.16-1.71-2.26-1.35C433.42,652.82,432,654.82,431.85,658.54Z"/><path class="ae3126ba-6f06-44b3-a60a-238a9e38c73b" d="M510.23,665.2c-.44,4.24-3.22,6-6.84,6s-5.17-2.56-6-5.67c-1.54-5.67,2.16-13.6,7.19-15.43,2.58-.94,5.1-.92,6.45,1.78s-.41,4.38-2.58,5.63c-1.29.73-2.66,1.32-4,1.94-1.83.83-3.72,1.54-3.51,4.15.15,2,.76,3.64,2.59,4.48,2.17,1,3.79-.18,5.24-1.71A14.66,14.66,0,0,1,510.23,665.2Zm-9-6.67c2.85-1.5,6-1.51,6.73-4.87a1.53,1.53,0,0,0-1.82-1.76C503,652.51,501.6,654.71,501.19,658.53Z"/><path class="ae3126ba-6f06-44b3-a60a-238a9e38c73b" d="M383,638.74l3.24-1c3-.89,4,.15,3.44,3.23-1.21,6.87-2.48,13.75-3.26,20.67-.22,2-2.75,5.32,1.78,6.34.61.13.35,1.14-.17,1.65a4.85,4.85,0,0,1-3.55,1.54,1.86,1.86,0,0,1-1.78-2.05c.11-2.65.28-5.31.64-7.93.74-5.44,1.61-10.86,2.46-16.27C386.17,642.41,386.42,640,383,638.74Z"/><path class="edba1953-5ca1-43e6-8b48-25f0114beedd" d="M227,532.54V397h1V532.47Z"/><path class="ae3126ba-6f06-44b3-a60a-238a9e38c73b" d="M459.25,655.73c-2-1.54-2.17-4.68-5-4-2.58.65-3.29,3-4.16,5.18a3.71,3.71,0,0,0-.1.48c-.9,3.63-1.58,7.48,1.45,10.25s4.51-2.08,7.69-2.34c-1.64,4-4.22,6.18-7.92,5.82-4-.38-5.14-3.69-5.43-7.23-.55-6.75,2.74-12.6,7.83-14C458.16,648.64,460.3,650.62,459.25,655.73Z"/><path class="accb86bb-ae56-4b03-a838-3bd02f4cabf5" d="M268.91,550.58c-1,.83-2,2.51-2.83-.16,2.18-1.23,1-3.3,1-4.9.11-18.65.07-37.3.07-55.95v-5.48c1.87.22,2,1.33,1.95,2.57Z"/><path class="ae3126ba-6f06-44b3-a60a-238a9e38c73b" d="M518.9,671.25a7.09,7.09,0,0,1-3.9-1.43c-1-.8-1.64-1.91-.79-3s2-.61,2.95.34,2,3.17,3.94,1.44.42-3.41-.37-5c-1.13-2.2-2.76-4.18-3.65-6.46s-.71-4.67,1.61-6.23,4.6-1.88,7-.38c1.24.77,2.1,1.93,1.17,3.3s-2,.37-2.93-.35c-1.15-.89-2.45-2.34-3.8-.73-1.08,1.3-.15,2.81.69,4.09a49,49,0,0,1,3.72,5.86C526.71,667.31,524.09,671.31,518.9,671.25Z"/><path class="ae3126ba-6f06-44b3-a60a-238a9e38c73b" d="M349.29,425.51c.94.19,2.06.27,1.27,1.7-.11,1.79-.37,3.6-.37,5.41q0,56.76,0,113.53c0,2.13-.35,4.34,1.05,6.24a2,2,0,0,1-2.23-.9q0-37.35.09-74.7Q349.15,451.14,349.29,425.51Z"/><path class="accb86bb-ae56-4b03-a838-3bd02f4cabf5" d="M361.83,128.2c-8.44-1.29-16.46-1-24.14,2.49-.28-6.6,1.31-8.35,7.48-8.36a97.44,97.44,0,0,0,10-.07C359.31,121.84,361.34,123.57,361.83,128.2Z"/><path class="ae3126ba-6f06-44b3-a60a-238a9e38c73b" d="M277.79,651.48c2.62.56,5.46-4.68,7.42.58.49,1.31,1.28-.07,1.74-.45a6.83,6.83,0,0,1,4.94-2,2,2,0,0,1,2,1.81,1.88,1.88,0,0,1-1.74,2c-2,.22-4.32-1.15-5.81,1.37a29.23,29.23,0,0,0-3.41,10.27c-.35,2.06,1.27,6.23-2.38,5.61-3.4-.58-1-4-.59-6.28.45-2.44.75-4.9,1.1-7.35S281.45,652.2,277.79,651.48Z"/><path class="accb86bb-ae56-4b03-a838-3bd02f4cabf5" d="M444.84,310a3,3,0,0,1,2.14-1.83c5.85-1.75,6.92-6,6-11.32-.18-1-1.08-2.45.7-2.87,1.45-.34,1.9,1,2.4,2a9.87,9.87,0,0,1,.64,6.83,34.47,34.47,0,0,0-1.56,10.2c.09,2.37-.67,3.48-3.16,1.36C449.91,312.63,447.26,311.48,444.84,310Z"/><path class="ae3126ba-6f06-44b3-a60a-238a9e38c73b" d="M462.94,651.7c2.4-1,4.67-2.9,6.58-1.35,1.57,1.29.28,3.74,0,5.66-.47,2.77-1.07,5.52-1.43,8.31-.14,1-.73,2.28.45,3.19.66.51,3.07-.51,1.76,1.63a4.19,4.19,0,0,1-4.28,2c-1.36-.25-1.69-1.65-1.57-2.77.41-3.79.91-7.57,1.58-11.31C466.46,654.41,466.18,652.47,462.94,651.7Z"/><path class="ae3126ba-6f06-44b3-a60a-238a9e38c73b" d="M294.78,651.7c2.41-.94,4.58-2.92,6.57-1.3,1.79,1.45.07,3.73-.18,5.62-.38,3-.91,5.91-1.33,8.88-.13.93-.61,2.18.62,2.61s2.74.14,1.31,1.9a4.22,4.22,0,0,1-3.95,1.71,2.27,2.27,0,0,1-1.68-2.71c.49-3.79,1-7.58,1.72-11.33C298.33,654.48,298.1,652.48,294.78,651.7Z"/><path class="ae3126ba-6f06-44b3-a60a-238a9e38c73b" d="M325.49,651.88c2.68-1.14,4.85-3.09,6.84-1.51,1.79,1.42.14,3.72-.13,5.61-.41,3-.93,5.91-1.34,8.88-.12.92-.62,2.15.59,2.64,1,.4,2.78.06,1.37,1.88a4.3,4.3,0,0,1-3.93,1.75,2.22,2.22,0,0,1-1.71-2.68c.46-3.79,1.14-7.55,1.64-11.34C329.12,654.79,330,652,325.49,651.88Z"/><path class="accb86bb-ae56-4b03-a838-3bd02f4cabf5" d="M145,387.57l1-1c1.8.69,1,2.26,1,3.41.06,11.75-.07,23.51.09,35.26.06,4.16-1.6,4.94-5.09,3.51l.14-1.33c2.58.51,3-.84,3-3.07C145.06,412.07,145.07,399.82,145,387.57Z"/><path class="ae3126ba-6f06-44b3-a60a-238a9e38c73b" d="M140.92,559.21c6.51,3.57,6-.14,6-3.61q-.08-32.94,0-65.88c0-2-.42-4,.54-5.88.15.14.33.23.33.32q.1,37.63.19,75.27c0,1,.2,2.22-1.19,2.3C145.05,561.83,143,562.65,140.92,559.21Z"/><path class="accb86bb-ae56-4b03-a838-3bd02f4cabf5" d="M344.26,248.55H333.49c5.67-6.49,2.56-11.24-3.23-15.62C336.15,232.8,342,239.77,344.26,248.55Z"/><path class="accb86bb-ae56-4b03-a838-3bd02f4cabf5" d="M244.88,558.66l2.29,0c.09.48.13,1.36.26,1.37,8.26.78,16.54.35,24.81.28.81,0,1-.72,1-1.43-.11-1.35-1-1.53-2.1-1.26-.46-1,.86-1.26.88-2.06,2.94-.71,3.25,1,3.19,3.3,0,2-.16,3.57-2.82,3.55q-12.4-.12-24.82,0C244.75,562.38,244.93,560.5,244.88,558.66Z"/><path class="accb86bb-ae56-4b03-a838-3bd02f4cabf5" d="M494,561.79l.12-1.43c9.79,0,19.58.06,29.37,0,1.74,0,4.38,1.06,3.74-4,1.87,4.22,2.39,6.2-2,6C514.77,561.92,504.33,563,494,561.79Z"/><path class="accb86bb-ae56-4b03-a838-3bd02f4cabf5" d="M426.86,557.32l.22-2c2.23-.19,4,0,3.68,3-.2,1.76.39,4-2.48,3.9-8.76-.27-17.55.73-26.29-.54l.09-1.39c7.95,0,15.91,0,23.87,0,1,0,2.48.7,2.84-1C429.1,557.85,428.35,557.18,426.86,557.32Z"/><path class="accb86bb-ae56-4b03-a838-3bd02f4cabf5" d="M317.36,419.71v32.47l-1,0V419.7Z"/><path class="ae3126ba-6f06-44b3-a60a-238a9e38c73b" d="M178.25,456.25l-1,.15,0-57.79h.49l.48-.1Z"/><path class="accb86bb-ae56-4b03-a838-3bd02f4cabf5" d="M442,561.79c0-.48.09-1,.14-1.44,6.09,0,12.17,0,18.26,0,.87,0,2.06.44,2.4-1,.39-1.61-.69-1.94-1.92-2.12l.16-1.87c3.1-.39,4,1,3.88,4s-2,3-4.08,2.89C454.53,562,448.21,563.07,442,561.79Z"/><path class="ae3126ba-6f06-44b3-a60a-238a9e38c73b" d="M706.77,519.56q.13-28.53.28-57.06h.73q0,28.47,0,56.93Z"/><path class="accb86bb-ae56-4b03-a838-3bd02f4cabf5" d="M354.78,556.74l1.54-.26c1.49,4.06.68,6.25-4.25,5.93a104.27,104.27,0,0,0-12.87,0c-3,.18-4.31-.9-4.31-3.8l2.27,0c-.21,2.2,1.42,1.73,2.63,1.74,3.95,0,7.92-.21,11.85.08C354.79,560.69,355.28,559.29,354.78,556.74Z"/><path class="ae3126ba-6f06-44b3-a60a-238a9e38c73b" d="M310.37,547.31c-.89-17.68.52-35.41-.84-53.34,2,2.09,1.58,4.58,1.6,6.88.06,13.28,0,26.55.08,39.83,0,2.31.28,4.63.42,6.94Z"/><path class="accb86bb-ae56-4b03-a838-3bd02f4cabf5" d="M331.15,323.55c-.7-.31-2.27.08-2.07-.65,1.12-4.17-.14-9.27,5.21-13-1,4.55-3.83,8.73,1.53,10.94-1.28,2.26-3.94.7-4.74,2.77Z"/><path class="accb86bb-ae56-4b03-a838-3bd02f4cabf5" d="M602.54,517.21c1.36,3.79-.92,7.24-1,11a62.91,62.91,0,0,1-4.6-14.73c1,.24.93-.57,1.19-1.09l1.32.13C599.44,514.75,599.56,516.92,602.54,517.21Z"/><path class="ae3126ba-6f06-44b3-a60a-238a9e38c73b" d="M234.29,659.57c-2,.16-2.64.25-3.31.26-1.2,0-3,.84-3-1.32,0-2,1.75-1.58,3-1.68,2-.17,4-.23,6-.33,1,0,2.09-.16,2.23,1.23.17,1.65-.95,1.86-2.22,1.84S234.29,659.57,234.29,659.57Z"/><path class="ae3126ba-6f06-44b3-a60a-238a9e38c73b" d="M547.12,659.89c-1.76-1-5.06,1.8-5.21-1.52-.11-2.6,3.21-1.52,4.94-1.5,2,0,5.64-1.88,5.8,1C552.85,661.23,548.9,658.63,547.12,659.89Z"/><path class="accb86bb-ae56-4b03-a838-3bd02f4cabf5" d="M538.93,561.8l.17-1.48h20.07l0,1.53A80,80,0,0,1,538.93,561.8Z"/><path class="accb86bb-ae56-4b03-a838-3bd02f4cabf5" d="M178.19,398.52l-.48.1h-.49a6.87,6.87,0,0,1,4.18-7.39c2-1,3.12-2.41-.43-2.83l.21-2c1.8,0,3.79-.46,3.75,2.43,0,2,.36,3.81-2.73,4.06S179.58,396.66,178.19,398.52Z"/><path class="accb86bb-ae56-4b03-a838-3bd02f4cabf5" d="M87.31,341l-.15,1.5H70.26C75.92,341.46,81.53,340.15,87.31,341Z"/><path class="accb86bb-ae56-4b03-a838-3bd02f4cabf5" d="M692.77,342.38c0-.5-.07-1-.1-1.49a35.45,35.45,0,0,1,13.12,1C701.49,343,697.11,342.28,692.77,342.38Z"/><path class="edba1953-5ca1-43e6-8b48-25f0114beedd" d="M707.78,462.5h-.73l-.27-24,1,.1Z"/><path class="ae3126ba-6f06-44b3-a60a-238a9e38c73b" d="M301.53,644.61c-1.53-.06-2.59-.6-2.65-2.28a2.23,2.23,0,0,1,2-2.42,2.38,2.38,0,1,1,.67,4.7Z"/><path class="accb86bb-ae56-4b03-a838-3bd02f4cabf5" d="M227,532.54l1-.07a19.3,19.3,0,0,1-4.72,14.18A111.77,111.77,0,0,0,227,532.54Z"/><path class="ae3126ba-6f06-44b3-a60a-238a9e38c73b" d="M469.34,639.82c1.38.22,2.58.71,2.58,2.36a2.19,2.19,0,0,1-2,2.35c-1.46.19-2.66-.37-2.85-2S468,640.26,469.34,639.82Z"/><path class="accb86bb-ae56-4b03-a838-3bd02f4cabf5" d="M617.07,388.7v-2.34c3.81-.4,4.33,1.81,4,4.87-.4,3.41-2.51,1.82-4,1.91C616.26,391.37,622.3,390.34,617.07,388.7Z"/><path class="ae3126ba-6f06-44b3-a60a-238a9e38c73b" d="M334.81,642.37c-.41,1.44-1.22,2.34-2.79,2.19a2.07,2.07,0,0,1-2.11-2.21,2.26,2.26,0,0,1,2.42-2.48A2.46,2.46,0,0,1,334.81,642.37Z"/><path class="accb86bb-ae56-4b03-a838-3bd02f4cabf5" d="M375,505.48c3.21,0,6.43.34,9.84-.93-1.74,3.35-5.65,3.87-10.76,1.87C374.39,506.1,374.7,505.79,375,505.48Z"/><path class="accb86bb-ae56-4b03-a838-3bd02f4cabf5" d="M129.8,559.1c-3.09,3.42-7.18,4-11.66,3.46Z"/><path class="accb86bb-ae56-4b03-a838-3bd02f4cabf5" d="M706.77,519.56l1-.13c.41,5.22-.87,10.15-1.62,15.18l-1.43-.19Q705.73,527,706.77,519.56Z"/><path class="accb86bb-ae56-4b03-a838-3bd02f4cabf5" d="M125.21,479.51c1.19.12,1,1,1,1.8-3.68-.19-7.51,1.33-11-.88l1-1Z"/><path class="accb86bb-ae56-4b03-a838-3bd02f4cabf5" d="M690.61,558.13c-3.58,2.14-7.2,4.18-11.76,3.48l10.67-4.48Z"/><path class="accb86bb-ae56-4b03-a838-3bd02f4cabf5" d="M707.79,438.56l-1-.1A38.23,38.23,0,0,1,706,426C708.55,430.47,708,434.54,707.79,438.56Z"/><path class="accb86bb-ae56-4b03-a838-3bd02f4cabf5" d="M676.75,561.8c-3,2.07-6,2.1-8.73,0Z"/><path class="accb86bb-ae56-4b03-a838-3bd02f4cabf5" d="M97.84,401,94,411.44a14.76,14.76,0,0,1,2.68-11.31Z"/><path class="ae3126ba-6f06-44b3-a60a-238a9e38c73b" d="M427,387.68c0-.37,0-.74-.07-1.1,2.49-.36,3.24.55,3.37,3.19.19,3.85-2.44,2.5-4.2,2.88l-.16-.14c.28-1.82,3.47-.29,3.21-2.87C429,388.19,428.46,387.55,427,387.68Z"/><path class="accb86bb-ae56-4b03-a838-3bd02f4cabf5" d="M310.67,468.17l4.11-9c.73,4.08-1.23,7.08-3.14,10.11Z"/><path class="accb86bb-ae56-4b03-a838-3bd02f4cabf5" d="M190.27,562.89H198C195.44,564.66,192.9,564.92,190.27,562.89Z"/><path class="ae3126ba-6f06-44b3-a60a-238a9e38c73b" d="M319,557.55a3.65,3.65,0,0,1-.07-.93c1.07.41,2.65-1.37,2.92-.2.37,1.55,1.38,3.75-.88,5.06l.07.14C320,560.45,322.76,557.38,319,557.55Z"/><path class="accb86bb-ae56-4b03-a838-3bd02f4cabf5" d="M213.76,558.12c-1.91,1.38-3.78,2.87-7.1,3.2,1.94-2.57,4.22-3,6.05-4.19Z"/><path class="accb86bb-ae56-4b03-a838-3bd02f4cabf5" d="M578.63,444.53c-1.46-1.32-1.08-3.17-1.38-4.89,2.3.94,1.94,3.19,2.5,5Z"/><path class="accb86bb-ae56-4b03-a838-3bd02f4cabf5" d="M212.71,557.13l4.78-4c-.52,3.35-2.41,3.94-3.73,5Z"/><path class="accb86bb-ae56-4b03-a838-3bd02f4cabf5" d="M587.85,479.44c-.38-1-2.07-2,0-2.93.52.78,2.2.6,1.79,2.16l-.85.93Z"/><path class="accb86bb-ae56-4b03-a838-3bd02f4cabf5" d="M595.06,499.54a6.88,6.88,0,0,1,1.83,6.51A7.36,7.36,0,0,1,595.06,499.54Z"/><path class="accb86bb-ae56-4b03-a838-3bd02f4cabf5" d="M581,451.51l-1.73-.43,1.73-1.57C581.51,450.17,582.62,450.84,581,451.51Z"/><path class="accb86bb-ae56-4b03-a838-3bd02f4cabf5" d="M693.6,556l-3,2.15-1.08-1,3-2Z"/><path class="ae3126ba-6f06-44b3-a60a-238a9e38c73b" d="M578.63,444.53l1.12.08.57,2.93-1.17,0C579,446.53,578.8,445.53,578.63,444.53Z"/><path class="accb86bb-ae56-4b03-a838-3bd02f4cabf5" d="M310.37,547.31l1.26.31a1.65,1.65,0,0,1,.22,2l-.93.9A3.07,3.07,0,0,1,310.37,547.31Z"/><path class="accb86bb-ae56-4b03-a838-3bd02f4cabf5" d="M311.64,469.27a4.47,4.47,0,0,1-2.46,2.47c-.83-1.88.9-2.5,1.49-3.57Z"/><path class="accb86bb-ae56-4b03-a838-3bd02f4cabf5" d="M218.54,553.1c.49-.22.19-.94.28-1.16a5,5,0,0,1,1.16-1.51.61.61,0,0,1,1.06.34C221.06,551.62,220.54,552.26,218.54,553.1Z"/><path class="ae3126ba-6f06-44b3-a60a-238a9e38c73b" d="M424.91,393.44c.74,1.34-.25,2.15-1,3.05l.12.09c-1.34-1.5-.17-2.26.9-3.05Z"/><path class="ae3126ba-6f06-44b3-a60a-238a9e38c73b" d="M573.43,423.45l-.14,0a2.24,2.24,0,0,1,.4,2.65C572.51,425.28,572.39,424.43,573.43,423.45Z"/><path class="ae3126ba-6f06-44b3-a60a-238a9e38c73b" d="M599.44,512.5l-1.32-.13c-.06-.89-.9-1.87.39-2.71C598.83,510.64,599.13,511.57,599.44,512.5Z"/><path class="ae3126ba-6f06-44b3-a60a-238a9e38c73b" d="M588.81,479.6l.85-.93c.16.88.83,2.17,0,2.52S589,480.23,588.81,479.6Z"/><path class="accb86bb-ae56-4b03-a838-3bd02f4cabf5" d="M697.92,551.76c-.52.76-1.08,2.13-2,1.53-1.25-.81.08-1.47.71-2Z"/><path class="edba1953-5ca1-43e6-8b48-25f0114beedd" d="M375,505.48c-.31.31-.62.62-.92.94l-.06-1.76Z"/><path class="ae3126ba-6f06-44b3-a60a-238a9e38c73b" d="M321,561.48c-.27.92-1,1.07-1.79,1,0,0-.07-.73,0-.76.6-.2,1.21-1.19,1.85-.07Z"/><path class="ae3126ba-6f06-44b3-a60a-238a9e38c73b" d="M148.94,481.86l-.36.64c-.11-.11-.33-.24-.31-.33a3.34,3.34,0,0,1,.31-.67Z"/><path class="accb86bb-ae56-4b03-a838-3bd02f4cabf5" d="M693.58,554.2c.4-.49,1-1.09,1.48-.49.74.92-.32,1.3-.87,1.78Z"/><path class="accb86bb-ae56-4b03-a838-3bd02f4cabf5" d="M221.61,548.07c.25-.55.68-1.16,1.25-.73.81.61.19,1.27-.31,1.81Z"/><path class="accb86bb-ae56-4b03-a838-3bd02f4cabf5" d="M692.49,555.11l1.09-.91.61,1.29a1.23,1.23,0,0,1-.59.49Z"/><path class="accb86bb-ae56-4b03-a838-3bd02f4cabf5" d="M222.55,549.15c-.38.48-.8,1.11-1.43.42s.09-1.07.49-1.5Z"/><path class="accb86bb-ae56-4b03-a838-3bd02f4cabf5" d="M697.55,550.17c.29-.54.78-1.16,1.31-.63.76.75-.05,1.32-.58,1.84Z"/><path class="accb86bb-ae56-4b03-a838-3bd02f4cabf5" d="M96.71,400.13c.28-.54.55-1.28,1.32-.74s0,1.08-.19,1.6Z"/><path class="accb86bb-ae56-4b03-a838-3bd02f4cabf5" d="M99.87,398c-.48.52-1,1.42-1.74.59-.48-.52.16-1,.61-1.41Z"/><path class="ae3126ba-6f06-44b3-a60a-238a9e38c73b" d="M423.79,397.53h-.63c0-.6-.29-1.51.92-.95l-.12-.09C423.9,396.83,423.84,397.18,423.79,397.53Z"/><path class="accb86bb-ae56-4b03-a838-3bd02f4cabf5" d="M98.74,397.16c.33-.28.82-.86,1-.78.74.39.48,1,.16,1.6Z"/><path class="ae3126ba-6f06-44b3-a60a-238a9e38c73b" d="M426.12,392.65c-.09.74-.19,1.47-1.21.79l.07.09c-.09-.74.21-1.11,1-1Z"/><path class="accb86bb-ae56-4b03-a838-3bd02f4cabf5" d="M698.28,551.38a4.27,4.27,0,0,1-.36.38l-1.31-.52c.32-.35.63-.71.94-1.07Z"/><path class="a546bbf8-ece0-412c-a8a9-3391923ea6b2" d="M426,392.51c-.77-.09-1.07.28-1,1-1.07.79-2.24,1.55-.9,3.05-1.21-.56-.91.35-.92.95-.09,2.32-.26,4.65-.26,7q0,72.4,0,144.8v2.75a9.46,9.46,0,0,1-2.76-7.42c0-49.1.07-98.2-.13-147.3,0-5.48,3.13-7.55,7-9.65,1.44-.13,2,.51,2.15,2C429.43,392.22,426.24,390.69,426,392.51Z"/><path class="a546bbf8-ece0-412c-a8a9-3391923ea6b2" d="M349.29,425.51q-.1,25.64-.2,51.28-.07,37.35-.09,74.7c-3.12-2-2.32-5.31-2.32-8.14q-.1-62.06,0-124.12c0-1.14.14-2.28.24-3.91C349.42,418.66,348.78,422.22,349.29,425.51Z"/><path class="a546bbf8-ece0-412c-a8a9-3391923ea6b2" d="M426.86,557.32c1.49-.14,2.24.53,1.93,2-.36,1.73-1.85,1-2.84,1-8,.06-15.92,0-23.87,0-.43-2.84,1.77-1.8,2.93-1.82,5.83-.1,11.66,0,17.48-.1C424,558.44,425.89,559.48,426.86,557.32Z"/><path class="a546bbf8-ece0-412c-a8a9-3391923ea6b2" d="M354.78,556.74c.5,2.55,0,4-3.14,3.73-3.93-.29-7.9-.05-11.85-.08-1.21,0-2.84.46-2.63-1.74,2.45,0,4.89-.07,7.34-.13C348,558.45,351.67,559.14,354.78,556.74Z"/><path class="a546bbf8-ece0-412c-a8a9-3391923ea6b2" d="M288.06,394.42a22.22,22.22,0,0,1,8.08,17.47c.13,12.14.11,24.28.09,36.41,0,18.71-8.18,26.52-26.94,25.93q0-40.74-.07-81.49C275.54,392.85,282,391.53,288.06,394.42Z"/><path class="a546bbf8-ece0-412c-a8a9-3391923ea6b2" d="M266.82,474.27c-2.66.14-1.77-1.9-1.77-3.14q-.07-39.33,0-78.66c0-1.37-.54-3.18,2-3.05,5.42.28,10.93-.75,16.27,1-1.18,2.17-3.17.67-4.75,1-3.55.73-7.38-1.2-10.82,1-.94,1.54-.49,3.25-.49,4.87,0,16.49,0,33,0,49.46C267.12,456,266.94,465.12,266.82,474.27Z"/><path class="accb86bb-ae56-4b03-a838-3bd02f4cabf5" d="M266.82,474.27c.12-9.15.3-18.3.33-27.45.06-16.49,0-33,0-49.46,0-1.62-.45-3.33.49-4.87l1.54.25q0,40.75.07,81.49Z"/><path class="a546bbf8-ece0-412c-a8a9-3391923ea6b2" d="M271.12,557.58c1.12-.27,2-.09,2.1,1.26.06.71-.17,1.42-1,1.43-8.27.07-16.55.5-24.81-.28-.13,0-.17-.89-.26-1.37,6.65,0,13.3,0,19.94-.14C268.44,558.45,270.13,559.37,271.12,557.58Z"/><path class="ae3126ba-6f06-44b3-a60a-238a9e38c73b" d="M269.22,392.74l-1.54-.25c3.44-2.23,7.27-.3,10.82-1,1.58-.33,3.57,1.17,4.75-1,2.12.69,4,1.62,4.81,4C282,391.53,275.54,392.85,269.22,392.74Z"/><path class="a546bbf8-ece0-412c-a8a9-3391923ea6b2" d="M310.71,551.77c0,.12,0,.26,0,.34s-.25.19-.32.16c-.45-.22-.44-.47,0-.67C310.46,551.57,310.6,551.71,310.71,551.77Z"/><path class="a546bbf8-ece0-412c-a8a9-3391923ea6b2" d="M551.24,431.37a24.54,24.54,0,0,0-.35,2.94q0,58.35,0,116.68c-2.14-1.14-2.14-3.21-2.14-5.19q0-61.27,0-122.55a9.77,9.77,0,0,1,.35-1.67C551.2,424.83,551.05,428.14,551.24,431.37Z"/><path class="a546bbf8-ece0-412c-a8a9-3391923ea6b2" d="M676.91,393.46c8,1.92,9.13,8.56,9.89,15,1.47,12.42.62,24.94.69,37.41.17,26.62,0,53.24,0,79.87,0,5.81-.34,11.61-2.2,17.23-2.08,6.29-6.25,10.26-12.79,11.08-6.05.75-11-.28-15.79-5.68-4.37-4.93-5.54-10-5.9-15.66-1.09-17.61-.48-35.26-.42-52.9.08-23.62-.86-47.26.56-70.86.62-10.33,5.86-17,14.1-18.92,3.76-.88,7.51-.95,10.87,1.47-2.64.21-5.64-1.14-8.27,1.94Zm-16.38,2.72-1,1-1,1c-.47.37-1.1.88-.62,1.41.75.85,1.26,0,1.77-.53l.89-1,1.16-1.07c.45-.42.92-.89.21-1.4S660.9,395.74,660.53,396.18Zm4.93-3.09-2,1c-.52.31-1.27.61-.66,1.36s1.09,0,1.6-.29l2.28-1.17c0-.42,0-.84,0-1.26Zm-9,8c-.6.71-1.5,1.74-.56,2.36,1.26.81,1.14-.94,1.72-1.48.2-.53.93-1.08.17-1.61S656.75,400.56,656.47,401.11Zm-3.31,134.7h.46V416.25h-.46Zm1.3-130.17.86,1c.23-.38.64-.75.66-1.14s-.39-.7-.61-1.05Zm.28,2.21-.36-.33a2.87,2.87,0,0,0-.3.67c0,.08.19.21.3.32Z"/><path class="accb86bb-ae56-4b03-a838-3bd02f4cabf5" d="M676.91,393.46H667.6c2.63-3.08,5.63-1.73,8.27-1.94C677.23,391.63,676.49,392.86,676.91,393.46Z"/><path class="b8a60f24-04d5-4519-9bef-1f99584975d9" d="M145,387.57c0,12.25,0,24.5.15,36.74,0,2.23-.37,3.58-3,3.07,1.71-9.31.4-18.7.77-28.05.13-3.14,0-6.29,0-9.44C143,388.52,142.92,387.1,145,387.57Z"/><path class="a546bbf8-ece0-412c-a8a9-3391923ea6b2" d="M125.21,479.51l-9-.12C119.26,475.9,122.23,477.54,125.21,479.51Z"/><path class="a546bbf8-ece0-412c-a8a9-3391923ea6b2" d="M478.42,433.92q5.67,35.41,11.36,70.83c.47,2.84.18,4.17-3.29,4.05-7.93-.29-15.88-.12-23.82-.14-2.85,0-1.57-2-1.37-3.18q3.6-20.85,7.34-41.69,3.14-17.66,6.32-35.29c.32-1.76.82-3.49,1.52-6.38.6,4.44,1.73,7.59.88,10.92-.26.86-1.06,1.94.23,2.42C478.14,435.66,478.38,434.59,478.42,433.92Z"/><path class="a546bbf8-ece0-412c-a8a9-3391923ea6b2" d="M460.85,557.3c1.23.18,2.31.51,1.92,2.12-.34,1.39-1.53,1-2.4,1-6.09,0-12.17,0-18.26,0-.42-2.26,1.23-1.8,2.43-1.81q5.91,0,11.82,0C458,558.55,459.63,558.72,460.85,557.3Z"/><path class="a546bbf8-ece0-412c-a8a9-3391923ea6b2" d="M132.57,713c.4-.45.79-.91,1.18-1.36a2.07,2.07,0,0,1,0,2.32Z"/><path class="a546bbf8-ece0-412c-a8a9-3391923ea6b2" d="M139.93,710.79l-.33.56c-.1-.1-.31-.23-.29-.3a2.65,2.65,0,0,1,.3-.61Z"/><path class="a546bbf8-ece0-412c-a8a9-3391923ea6b2" d="M253.44,741.78c1.95.62,1.79,1.84,1.53,3-1,4.18-2,8.35-3.08,12.51-.29,1.14-.72,2.5-2.23,2-1.27-.42-.69-1.74-.42-2.57C250.83,751.8,251.15,746.48,253.44,741.78Z"/><path class="a546bbf8-ece0-412c-a8a9-3391923ea6b2" d="M474.25,757.94c0,1.08-.08,2.62-1.22,2.25-2.15-.7-.87-3.14-1.61-4.68-.38-.81.09-2,1.05-1.73C474.67,754.35,473.75,756.53,474.25,757.94Z"/><path class="a546bbf8-ece0-412c-a8a9-3391923ea6b2" d="M535.44,757.64a1.42,1.42,0,0,1-1.05,1.91c-1.21.39-1.29-.53-1.5-1.34-1.22-4.64-2.46-9.28-3.68-13.93-.21-.81-.43-1.7.8-1.85a1.55,1.55,0,0,1,1.83,1.26Z"/><path class="a546bbf8-ece0-412c-a8a9-3391923ea6b2" d="M278.5,763.82q1.32-6.78,2.62-13.57c.2-1,.52-2.11,1.7-2s1.14,1.38.94,2.37c-.9,4.51-1.83,9-2.74,13.54-.2,1-.36,2.19-1.62,2S278.28,764.81,278.5,763.82Z"/><path class="a546bbf8-ece0-412c-a8a9-3391923ea6b2" d="M501.5,748.61a2.51,2.51,0,0,1,1.39,1.93c.92,4.55,1.89,9.1,2.81,13.66.2,1,.41,2.21-.94,2.38-1.2.16-1.51-1-1.72-2q-1.38-6.83-2.77-13.66C500.05,749.82,500.3,749,501.5,748.61Z"/><path class="accb86bb-ae56-4b03-a838-3bd02f4cabf5" d="M364.18,762.39c0,1.8.13,3.62,0,5.41-.12,1.25.94,3.55-1.41,3.39-1.69-.12-1-2.18-.83-3.35a55.55,55.55,0,0,1,1.25-5.66Z"/><path class="a546bbf8-ece0-412c-a8a9-3391923ea6b2" d="M270.14,652.56c0,5.52-1.36,9.9-4.76,13.41-4.58,4.73-10.29,3.6-12.46-2.59s-1-12.12,2.65-17.48a7.8,7.8,0,0,1,8.66-3.49c3.59.82,4.9,3.7,5.66,6.87A16.78,16.78,0,0,1,270.14,652.56Z"/><path class="a546bbf8-ece0-412c-a8a9-3391923ea6b2" d="M412.1,651.83c2.73-2.2-2.28-8.85,4.74-9.5,3.48-.32,5.63,1.72,5.64,5.38,0,4.12-4,7.76-8.24,7.59C412,655.22,412,655.15,412.1,651.83Z"/><path class="a546bbf8-ece0-412c-a8a9-3391923ea6b2" d="M443.94,765.68c-.65-1.12-1.1-1.53-1.09-1.94,0-2.08-1.37-4.15-.15-6.19.14-.24,1.61-.11,1.67.09C445.1,760.06,445.88,762.54,443.94,765.68Z"/><path class="a546bbf8-ece0-412c-a8a9-3391923ea6b2" d="M314.79,678c-2.26-.48-5.42-.14-5.78-3.29-.33-2.82,2.33-3.23,4.51-3.21,2.53,0,5.31.62,5.63,3.59C319.46,677.85,316.69,677.5,314.79,678Z"/><path class="a546bbf8-ece0-412c-a8a9-3391923ea6b2" d="M317.77,656.19c-.09,2-.22,4.14-2.69,4.51s-3-1.54-3.13-3.45c-.1-2.13-.2-4.61,2.73-4.86C317.13,652.18,317.21,654.46,317.77,656.19Z"/><path class="a546bbf8-ece0-412c-a8a9-3391923ea6b2" d="M364.71,663.25a14.19,14.19,0,0,1,4.48-9.76,3,3,0,0,1,3.13-1c1.42.55,1,1.85.92,3a21.87,21.87,0,0,1-2.77,9.37c-.91,1.55-2,3.53-4.06,2.9S364.81,664.83,364.71,663.25Z"/><path class="a546bbf8-ece0-412c-a8a9-3391923ea6b2" d="M431.85,658.54c.19-3.72,1.57-5.72,4.36-6.63,1.1-.36,2.33.49,2.26,1.35C438.2,656.86,434.8,656.9,431.85,658.54Z"/><path class="a546bbf8-ece0-412c-a8a9-3391923ea6b2" d="M501.19,658.53c.41-3.82,1.82-6,4.91-6.63a1.53,1.53,0,0,1,1.82,1.76C507.23,657,504,657,501.19,658.53Z"/><ellipse class="edba1953-5ca1-43e6-8b48-25f0114beedd" cx="653.39" cy="476.03" rx="0.33" ry="84.54"/><path class="accb86bb-ae56-4b03-a838-3bd02f4cabf5" d="M654.46,405.64l.91-1.21c.22.35.63.71.61,1.05s-.43.76-.66,1.14Z"/><path class="accb86bb-ae56-4b03-a838-3bd02f4cabf5" d="M657.63,402c-.58.54-.46,2.29-1.72,1.48-.94-.62,0-1.65.56-2.36Z"/><path class="accb86bb-ae56-4b03-a838-3bd02f4cabf5" d="M663.43,394.1l2-1,1.2.91-2.29,1.17Z"/><path class="accb86bb-ae56-4b03-a838-3bd02f4cabf5" d="M656.47,401.11c.28-.55.56-1.28,1.33-.73s0,1.08-.17,1.61Z"/><path class="accb86bb-ae56-4b03-a838-3bd02f4cabf5" d="M659.66,399c-.51.49-1,1.38-1.77.53-.48-.53.15-1,.62-1.41Z"/><path class="accb86bb-ae56-4b03-a838-3bd02f4cabf5" d="M660.55,398l-.89,1-1.15-.88,1-1Z"/><path class="accb86bb-ae56-4b03-a838-3bd02f4cabf5" d="M659.5,397.15l1-1,1.18.79L660.55,398Z"/><path class="accb86bb-ae56-4b03-a838-3bd02f4cabf5" d="M660.53,396.18c.37-.44.69-1.12,1.39-.61s.24,1-.21,1.4Z"/><path class="accb86bb-ae56-4b03-a838-3bd02f4cabf5" d="M664.37,395.17c-.51.27-1,1-1.6.29s.14-1,.66-1.36Z"/><path class="accb86bb-ae56-4b03-a838-3bd02f4cabf5" d="M665.46,393.09l1.23-.35c0,.42,0,.84,0,1.26Z"/><path class="accb86bb-ae56-4b03-a838-3bd02f4cabf5" d="M654.74,407.85l-.36.66c-.11-.11-.32-.24-.3-.32a2.87,2.87,0,0,1,.3-.67Z"/><path class="edba1953-5ca1-43e6-8b48-25f0114beedd" d="M478.42,433.92c0,.67-.28,1.74-.83,1.54-1.29-.48-.49-1.56-.23-2.42Z"/></g></g></svg>